<svg version="1.1" xmlns="http://www.w3.org/2000/svg" viewBox="0 0 959.5327971373096 330.8333435058594" width="959.5327971373096" height="330.8333435058594" filter="invert(93%) hue-rotate(180deg)" class="excalidraw-svg"><!-- svg-source:excalidraw --><metadata></metadata><defs><style class="style-fonts">
      </style></defs><rect x="0" y="0" width="959.5327971373096" height="330.8333435058594" fill="#ffffff"></rect><g stroke-linecap="round" transform="translate(10 18.333343505859375) rotate(0 62.474685360694465 61.666656494140625)"><path d="M45.41 1.35 C54.19 -1.94, 66.78 0.09, 76.14 2.14 C85.5 4.2, 94.08 7.7, 101.59 13.67 C109.09 19.65, 117.21 29.03, 121.17 37.98 C125.14 46.93, 126.37 57.84, 125.38 67.38 C124.39 76.92, 120.64 87.3, 115.24 95.22 C109.84 103.15, 101.51 110.31, 93 114.93 C84.49 119.55, 73.87 122.55, 64.17 122.94 C54.48 123.34, 43.42 121.53, 34.83 117.3 C26.24 113.06, 18.48 105.1, 12.65 97.52 C6.81 89.94, 1.2 81.15, -0.17 71.82 C-1.54 62.5, 1.02 50.65, 4.42 41.59 C7.82 32.53, 11.95 24.46, 20.21 17.45 C28.47 10.44, 46.81 2.08, 54 -0.49 C61.18 -3.06, 63.03 0.95, 63.33 2.03 M69.52 0.97 C78.58 0.77, 88.7 3.66, 96.39 8.9 C104.09 14.14, 110.8 23.85, 115.71 32.4 C120.61 40.95, 125.21 50.86, 125.83 60.19 C126.44 69.53, 124.03 79.97, 119.38 88.41 C114.73 96.85, 106.01 104.88, 97.92 110.83 C89.83 116.79, 80.22 122.47, 70.83 124.13 C61.44 125.8, 50.47 124.41, 41.58 120.82 C32.7 117.24, 24.19 109.75, 17.52 102.61 C10.85 95.47, 4.13 87.23, 1.56 77.98 C-1.01 68.72, 0.11 56.38, 2.11 47.08 C4.11 37.78, 7.33 29.05, 13.56 22.17 C19.8 15.28, 30.32 9.62, 39.51 5.76 C48.7 1.91, 63.92 -0.35, 68.7 -0.96 C73.47 -1.57, 68.35 1.12, 68.16 2.12" stroke="#1e1e1e" stroke-width="2" fill="none"></path></g><g stroke-linecap="round" transform="translate(44.55805938413198 49.166656494140625) rotate(0 29.166656494140625 29.166656494140625)"><path d="M21.69 1.58 C27.59 -0.25, 36.76 0.69, 42.39 3.18 C48.03 5.68, 52.93 11.05, 55.5 16.55 C58.07 22.05, 59.61 30.04, 57.83 36.21 C56.04 42.38, 50.06 49.97, 44.79 53.56 C39.53 57.15, 32.47 58.4, 26.22 57.76 C19.97 57.11, 11.7 54.06, 7.29 49.71 C2.88 45.35, 0.05 37.97, -0.23 31.65 C-0.51 25.33, 0.73 17.09, 5.63 11.78 C10.52 6.48, 24.35 1.47, 29.15 -0.16 C33.95 -1.79, 34.47 1.52, 34.42 2.02 M16.67 3.57 C21.81 0.56, 29.47 0.26, 35.23 1.37 C40.99 2.48, 47.25 5.15, 51.23 10.24 C55.21 15.34, 59.42 25.48, 59.12 31.93 C58.82 38.39, 53.99 44.61, 49.43 48.97 C44.87 53.33, 37.86 57.51, 31.78 58.11 C25.7 58.72, 17.79 55.88, 12.95 52.6 C8.12 49.32, 4.66 44.26, 2.76 38.41 C0.85 32.57, -0.72 23.64, 1.51 17.53 C3.74 11.42, 13.96 3.92, 16.15 1.74 C18.35 -0.44, 14.67 3.58, 14.7 4.48" stroke="none" stroke-width="0" fill="#ffc9c9"></path><path d="M39.35 0.98 C44.82 2.91, 51.12 9.94, 54.08 15.45 C57.03 20.97, 58.14 27.94, 57.1 34.08 C56.07 40.23, 52.58 48.28, 47.87 52.32 C43.16 56.36, 35.02 58.51, 28.84 58.33 C22.65 58.15, 15.56 55.45, 10.76 51.23 C5.96 47.01, 1.14 39.3, 0.03 33 C-1.09 26.7, 0.95 18.8, 4.09 13.42 C7.23 8.05, 12.45 2.4, 18.87 0.75 C25.29 -0.89, 37.98 2.79, 42.59 3.57 C47.2 4.35, 46.79 5.06, 46.52 5.43 M20.67 1.86 C26.45 0.1, 34.73 0.34, 40.77 2.79 C46.81 5.24, 54.07 10.9, 56.91 16.58 C59.76 22.26, 59.48 30.61, 57.84 36.88 C56.2 43.14, 52.37 50.42, 47.05 54.18 C41.73 57.95, 32.1 60.17, 25.94 59.48 C19.79 58.8, 14.63 54.48, 10.14 50.08 C5.65 45.67, -0.21 39.11, -0.99 33.04 C-1.78 26.97, 1.66 19.21, 5.45 13.67 C9.24 8.13, 18.88 1.76, 21.74 -0.19 C24.6 -2.14, 22.43 1.27, 22.61 1.96" stroke="#e03131" stroke-width="2" fill="none"></path></g><g stroke-linecap="round" transform="translate(12.91668701171875 197.50003051757812) rotate(0 62.474685360694465 61.666656494140625)"><path d="M42.06 4.02 C50.42 0.21, 61.1 -0.42, 70.46 0.85 C79.82 2.12, 90.11 6.01, 98.2 11.63 C106.3 17.25, 114.55 26.09, 119.03 34.57 C123.51 43.05, 125.51 53, 125.07 62.51 C124.62 72.02, 120.92 83.31, 116.38 91.63 C111.83 99.95, 105.69 107.24, 97.78 112.43 C89.88 117.62, 78.61 121.76, 68.96 122.76 C59.3 123.76, 48.73 122.02, 39.86 118.44 C30.99 114.86, 22.04 108.62, 15.75 101.27 C9.47 93.92, 4.44 83.44, 2.16 74.32 C-0.12 65.19, -0.2 55.43, 2.07 46.5 C4.34 37.57, 8.36 28.1, 15.77 20.72 C23.18 13.34, 40.34 5.34, 46.54 2.22 C52.74 -0.89, 52.52 0.9, 52.95 2.01 M45.52 1.68 C54.01 -1.42, 63.96 -0.27, 73.5 1.81 C83.04 3.89, 95.27 8.16, 102.76 14.17 C110.26 20.17, 114.94 29.27, 118.49 37.85 C122.04 46.43, 124.76 56.11, 124.06 65.64 C123.35 75.16, 119.47 86.72, 114.27 95.02 C109.06 103.32, 101.02 110.85, 92.83 115.44 C84.64 120.02, 74.54 122.28, 65.13 122.54 C55.72 122.8, 45.18 120.8, 36.37 116.98 C27.57 113.16, 18.38 107.12, 12.3 99.63 C6.23 92.13, 1.55 81.6, -0.08 72.01 C-1.7 62.42, -0.53 51.16, 2.54 42.09 C5.61 33.02, 11.13 24.24, 18.35 17.59 C25.57 10.95, 41.35 4.55, 45.86 2.22 C50.36 -0.11, 45.18 2.42, 45.4 3.62" stroke="#1e1e1e" stroke-width="2" fill="none"></path></g><g stroke-linecap="round" transform="translate(47.47474639585073 228.33334350585938) rotate(0 29.166656494140625 29.166656494140625)"><path d="M19.86 1.05 C25.39 -0.96, 34.35 0.43, 40.16 2.86 C45.97 5.29, 51.78 10.19, 54.69 15.65 C57.61 21.11, 58.79 29.45, 57.64 35.63 C56.49 41.82, 52.78 48.94, 47.79 52.77 C42.8 56.61, 34.03 58.83, 27.69 58.62 C21.36 58.42, 14.27 55.72, 9.8 51.53 C5.32 47.34, 1.75 39.75, 0.82 33.49 C-0.11 27.24, 0.15 19.49, 4.2 14.02 C8.25 8.55, 20.75 2.98, 25.09 0.7 C29.44 -1.59, 30.22 0.06, 30.29 0.32 M40.18 1.38 C46.11 3.18, 51.72 8.73, 54.85 14.39 C57.99 20.04, 60.3 28.94, 59 35.3 C57.69 41.67, 52.02 48.68, 47.02 52.57 C42.02 56.46, 35.21 58.81, 29.02 58.64 C22.83 58.47, 14.81 55.63, 9.89 51.57 C4.96 47.51, 0.33 40.56, -0.54 34.27 C-1.41 27.98, 1.65 19.29, 4.66 13.81 C7.68 8.33, 11.78 3.22, 17.54 1.38 C23.3 -0.46, 35.49 2.82, 39.22 2.76 C42.95 2.71, 40.04 0.92, 39.92 1.08" stroke="none" stroke-width="0" fill="#ffc9c9"></path><path d="M24.77 0.42 C30.4 -0.75, 38.74 1.23, 44.22 4.67 C49.71 8.11, 55.7 15.15, 57.68 21.06 C59.66 26.96, 58.79 34.4, 56.11 40.11 C53.42 45.81, 47.01 52.49, 41.57 55.27 C36.14 58.06, 29.4 58.28, 23.5 56.79 C17.6 55.31, 9.94 51.3, 6.17 46.36 C2.4 41.42, 0.45 33.39, 0.9 27.16 C1.35 20.93, 4.44 13.6, 8.87 8.97 C13.31 4.33, 24.35 0.58, 27.53 -0.66 C30.7 -1.89, 28.16 0.78, 27.94 1.55 M24.97 1.4 C30.97 -0.1, 40.82 0.67, 46.01 3.54 C51.2 6.42, 54.3 12.72, 56.13 18.67 C57.96 24.61, 59.4 33.05, 57.01 39.19 C54.62 45.33, 47.26 52.36, 41.8 55.53 C36.33 58.7, 30.37 59.49, 24.22 58.21 C18.07 56.93, 9.05 52.96, 4.9 47.85 C0.74 42.74, -0.93 33.81, -0.7 27.57 C-0.48 21.33, 2.16 14.84, 6.25 10.39 C10.34 5.93, 20.74 2.55, 23.85 0.84 C26.96 -0.87, 24.58 -0.16, 24.91 0.14" stroke="#e03131" stroke-width="2" fill="none"></path></g><g stroke-linecap="round" transform="translate(255.39125030210073 88.33331298828125) rotate(0 10 86.25)"><path d="M5 0 C8.19 -0.96, 11.73 0.82, 15 0 M5 0 C9.21 0.14, 12.1 0.03, 15 0 M15 0 C18.09 0.31, 21.76 2.7, 20 5 M15 0 C20.63 -1.86, 18.13 1.77, 20 5 M20 5 C19.49 67.97, 20.98 129.39, 20 167.5 M20 5 C19.91 59.61, 20.97 114, 20 167.5 M20 167.5 C20.9 170.72, 16.53 172.96, 15 172.5 M20 167.5 C21.12 171.92, 19.27 174.71, 15 172.5 M15 172.5 C11.53 172.35, 8.01 173.39, 5 172.5 M15 172.5 C11.5 172.88, 7.69 172.67, 5 172.5 M5 172.5 C2.49 172.29, -0.64 170.61, 0 167.5 M5 172.5 C3.82 171.62, -1.64 169.21, 0 167.5 M0 167.5 C1.31 128.23, -0.8 92.45, 0 5 M0 167.5 C0.21 111.12, -1 52.72, 0 5 M0 5 C-0.87 3.26, 0.95 0.62, 5 0 M0 5 C0.13 1.65, 1.07 -1.22, 5 0" stroke="#1e1e1e" stroke-width="2" fill="none"></path></g><g stroke-linecap="round" transform="translate(387.91680908203125 10) rotate(0 62.474685360694465 61.666656494140625)"><path d="M38.68 5.19 C46.67 0.62, 57.53 -1.13, 67.22 -0.44 C76.9 0.25, 88.43 4.07, 96.78 9.35 C105.14 14.63, 112.79 22.89, 117.36 31.24 C121.92 39.6, 123.85 49.94, 124.17 59.47 C124.5 68.99, 123.23 79.71, 119.29 88.39 C115.35 97.06, 108.47 105.83, 100.52 111.51 C92.58 117.2, 81.42 121.11, 71.64 122.51 C61.85 123.91, 50.97 122.79, 41.84 119.9 C32.71 117.01, 23.52 112.13, 16.85 105.17 C10.19 98.2, 4.55 87.39, 1.84 78.13 C-0.88 68.87, -1.32 58.69, 0.57 49.6 C2.46 40.51, 6.31 31.19, 13.16 23.57 C20 15.96, 36.4 7.15, 41.63 3.92 C46.87 0.69, 44.22 3.21, 44.58 4.21 M36.25 5.75 C44.22 1.13, 56.28 -0.1, 65.93 0.51 C75.58 1.13, 85.74 4.51, 94.15 9.42 C102.57 14.33, 111.51 21.93, 116.42 29.97 C121.33 38, 122.96 48, 123.6 57.62 C124.25 67.24, 124.14 78.7, 120.27 87.67 C116.41 96.65, 108.24 105.8, 100.44 111.46 C92.64 117.13, 82.81 120.2, 73.48 121.66 C64.14 123.12, 53.71 123.04, 44.43 120.23 C35.15 117.41, 24.99 111.77, 17.79 104.77 C10.59 97.77, 4.11 87.56, 1.22 78.23 C-1.68 68.89, -1.81 57.93, 0.43 48.77 C2.67 39.61, 8.76 30.32, 14.65 23.25 C20.55 16.19, 32 9.2, 35.79 6.38 C39.59 3.57, 36.63 5.56, 37.4 6.35" stroke="#1e1e1e" stroke-width="2" fill="none"></path></g><g stroke-linecap="round" transform="translate(394.58331298828125 192.49996948242188) rotate(0 62.474685360694465 61.666656494140625)"><path d="M77.3 0.88 C86.41 1.99, 96.79 8.65, 103.9 15.05 C111.01 21.45, 116.63 30.46, 119.96 39.3 C123.29 48.14, 124.81 58.7, 123.88 68.09 C122.95 77.49, 119.66 87.67, 114.38 95.7 C109.11 103.72, 100.76 111.58, 92.22 116.25 C83.67 120.92, 72.79 123.86, 63.1 123.71 C53.4 123.57, 42.67 119.87, 34.04 115.38 C25.41 110.9, 16.92 104.38, 11.33 96.79 C5.74 89.19, 1.61 79.24, 0.5 69.79 C-0.6 60.35, 1.18 49.02, 4.68 40.11 C8.17 31.2, 14.46 22.87, 21.47 16.34 C28.47 9.8, 35.51 2.72, 46.7 0.9 C57.89 -0.92, 79.91 3.28, 88.61 5.42 C97.31 7.56, 99.15 12.61, 98.89 13.74 M58.91 -0.26 C68.28 -1.68, 81.42 1.33, 90.18 5.35 C98.95 9.37, 105.76 16.09, 111.5 23.85 C117.24 31.6, 123.02 42.26, 124.62 51.87 C126.23 61.48, 124.43 72.33, 121.13 81.5 C117.83 90.68, 111.62 100.14, 104.81 106.93 C98.01 113.72, 89.44 119.73, 80.31 122.22 C71.18 124.72, 59.66 123.95, 50.04 121.92 C40.41 119.89, 29.93 115.79, 22.56 110.05 C15.19 104.31, 9.51 96.41, 5.82 87.48 C2.12 78.55, -0.02 66.44, 0.41 56.49 C0.84 46.55, 3.33 35.67, 8.41 27.81 C13.48 19.95, 22.26 13.82, 30.86 9.34 C39.45 4.86, 54.99 2.46, 59.97 0.92 C64.95 -0.62, 61.03 -0.58, 60.74 0.1" stroke="#1e1e1e" stroke-width="2" fill="none"></path></g><g stroke-linecap="round" transform="translate(429.14137237241323 223.33328247070312) rotate(0 29.166656494140625 29.166656494140625)"><path d="M30.66 0.18 C36.78 0.48, 45.54 4.32, 50.23 8.86 C54.91 13.39, 58.42 21.38, 58.77 27.38 C59.12 33.37, 56.11 39.87, 52.32 44.85 C48.53 49.83, 41.99 55.37, 36.03 57.28 C30.07 59.19, 22.23 58.82, 16.56 56.3 C10.89 53.79, 4.59 47.9, 2.02 42.18 C-0.56 36.46, -0.48 28.19, 1.1 21.99 C2.68 15.79, 5.31 8.26, 11.49 4.98 C17.67 1.69, 32.62 2.26, 38.17 2.3 C43.71 2.34, 44.76 4.78, 44.74 5.2 M27.91 1.51 C33.71 0.8, 40.83 1.67, 45.61 5.34 C50.39 9.01, 54.92 17.08, 56.58 23.53 C58.24 29.98, 58.25 38.62, 55.58 44.05 C52.91 49.49, 46.68 54, 40.56 56.14 C34.45 58.28, 24.85 58.84, 18.9 56.88 C12.95 54.92, 7.84 49.49, 4.85 44.39 C1.87 39.29, 0.06 32.48, 1.01 26.3 C1.95 20.12, 6.03 11.82, 10.52 7.3 C15.01 2.78, 24.87 0.1, 27.95 -0.84 C31.04 -1.79, 28.89 0.78, 29.04 1.63" stroke="none" stroke-width="0" fill="#ffc9c9"></path><path d="M37.71 0.9 C43.35 2.34, 49.4 7.7, 52.69 12.85 C55.99 18, 58.02 25.65, 57.49 31.77 C56.97 37.89, 53.89 45.13, 49.54 49.56 C45.18 53.99, 37.59 57.79, 31.36 58.35 C25.13 58.91, 17.18 56.83, 12.16 52.91 C7.13 49, 2.69 41.03, 1.22 34.88 C-0.26 28.72, 0.55 21.31, 3.29 15.97 C6.04 10.64, 10.92 4.92, 17.69 2.88 C24.46 0.85, 38.78 2.86, 43.9 3.76 C49.02 4.65, 48.87 8.01, 48.42 8.26 M23.01 1.84 C28.99 0.1, 37.7 0.27, 43.19 2.87 C48.67 5.47, 53.67 11.76, 55.92 17.45 C58.18 23.14, 58.22 31.08, 56.7 37.01 C55.18 42.95, 52.03 49.6, 46.81 53.08 C41.59 56.55, 31.77 58.36, 25.41 57.85 C19.05 57.33, 13.02 54.31, 8.66 49.99 C4.31 45.66, 0 38.06, -0.73 31.91 C-1.46 25.76, 0.48 18.03, 4.3 13.1 C8.11 8.16, 19.22 4.32, 22.15 2.32 C25.08 0.32, 21.89 0.85, 21.88 1.11" stroke="#e03131" stroke-width="2" fill="none"></path></g><g stroke-linecap="round" transform="translate(668.7246952418204 85.41664708322946) rotate(0 10 86.25)"><path d="M5 0 C7.64 0.71, 11.22 -0.15, 15 0 M5 0 C8.05 -0.07, 11.52 0.5, 15 0 M15 0 C16.57 -0.93, 18.58 2.55, 20 5 M15 0 C19.17 2.16, 20.38 1.7, 20 5 M20 5 C19.3 38.69, 21.16 71.76, 20 167.5 M20 5 C20.78 50.61, 20.58 95.76, 20 167.5 M20 167.5 C18.25 169.24, 19.74 172.43, 15 172.5 M20 167.5 C21.01 171.6, 20.6 171.85, 15 172.5 M15 172.5 C10.55 173.29, 6.66 172.85, 5 172.5 M15 172.5 C12.53 172.46, 10.64 172.17, 5 172.5 M5 172.5 C0.22 174.2, -1.77 169.56, 0 167.5 M5 172.5 C1.61 171.68, -0.37 168.59, 0 167.5 M0 167.5 C-0.03 116.98, 1.68 63.14, 0 5 M0 167.5 C-0.06 133.62, 0.11 99.84, 0 5 M0 5 C0 2.92, 1.99 1.69, 5 0 M0 5 C-1.58 0.8, 0 -0.63, 5 0" stroke="#1e1e1e" stroke-width="2" fill="none"></path></g><g stroke-linecap="round" transform="translate(824.5834264159206 111.66667760080759) rotate(0 62.47468536069448 61.666656494140625)"><path d="M42.86 3.35 C51.31 -0.27, 64.21 -1.03, 73.7 0.66 C83.2 2.35, 92.19 7.77, 99.82 13.47 C107.45 19.16, 115.38 26.15, 119.49 34.83 C123.59 43.51, 125.12 55.88, 124.44 65.52 C123.76 75.17, 120.33 84.46, 115.38 92.71 C110.44 100.95, 102.86 109.87, 94.78 114.98 C86.7 120.08, 76.49 122.86, 66.9 123.33 C57.31 123.8, 46.13 121.78, 37.23 117.78 C28.32 113.78, 19.59 106.76, 13.47 99.34 C7.34 91.91, 2.47 82.54, 0.5 73.23 C-1.47 63.93, -1.36 52.53, 1.63 43.5 C4.62 34.47, 9.72 26.1, 18.44 19.06 C27.17 12.02, 46.31 4.34, 54 1.25 C61.7 -1.85, 64.62 -0.45, 64.61 0.48 M90.04 5.99 C98.6 9.3, 106.41 18.27, 112.37 25.95 C118.32 33.63, 124.13 42.44, 125.76 52.06 C127.39 61.69, 125.55 74.29, 122.15 83.69 C118.74 93.09, 112.68 101.98, 105.35 108.48 C98.01 114.98, 87.43 120.56, 78.16 122.67 C68.89 124.78, 59.18 123.61, 49.73 121.13 C40.28 118.65, 28.8 113.91, 21.44 107.82 C14.09 101.73, 9.29 93.52, 5.58 84.59 C1.87 75.65, -1.46 63.99, -0.83 54.21 C-0.2 44.42, 3.99 33.5, 9.36 25.87 C14.73 18.23, 22.88 12.61, 31.41 8.38 C39.94 4.15, 50.39 0.95, 60.53 0.48 C70.67 0.01, 87.17 4.33, 92.25 5.54 C97.33 6.75, 91.64 6.85, 91.02 7.73" stroke="#1e1e1e" stroke-width="2" fill="none"></path></g><g stroke-linecap="round"><g transform="translate(142.89133035776115 79.16664708322946) rotate(0 52.0833740234375 48.75)"><path d="M-0.65 -1 C16.48 15.23, 85.43 80.18, 103.03 96.44 M1.21 1.09 C18.67 17.52, 87.92 81.37, 105.14 97.42" stroke="#1e1e1e" stroke-width="2" fill="none"></path></g><g transform="translate(142.89133035776115 79.16664708322946) rotate(0 52.0833740234375 48.75)"><path d="M82.1 87.73 C87.75 89.07, 95.05 95.33, 105.14 97.42 M82.1 87.73 C86.51 90.2, 92.39 92.23, 105.14 97.42" stroke="#1e1e1e" stroke-width="2" fill="none"></path></g><g transform="translate(142.89133035776115 79.16664708322946) rotate(0 52.0833740234375 48.75)"><path d="M93.72 75.18 C95.54 80.48, 99.11 90.78, 105.14 97.42 M93.72 75.18 C95.57 80.58, 98.85 85.41, 105.14 97.42" stroke="#1e1e1e" stroke-width="2" fill="none"></path></g></g><mask></mask><g stroke-linecap="round"><g transform="translate(147.05807840463615 260.8333340949482) rotate(0 49.1666259765625 -41.25)"><path d="M0.33 -0.61 C16.84 -14.58, 82.1 -69.28, 98.47 -82.88 M-0.96 1.69 C15.46 -12.2, 81.12 -67.81, 97.6 -81.54" stroke="#1e1e1e" stroke-width="2" fill="none"></path></g><g transform="translate(147.05807840463615 260.8333340949482) rotate(0 49.1666259765625 -41.25)"><path d="M85.13 -59.88 C87.03 -65.05, 90.51 -70.3, 97.6 -81.54 M85.13 -59.88 C89.25 -67.96, 94.16 -74.61, 97.6 -81.54" stroke="#1e1e1e" stroke-width="2" fill="none"></path></g><g transform="translate(147.05807840463615 260.8333340949482) rotate(0 49.1666259765625 -41.25)"><path d="M74.12 -72.96 C78.86 -74.92, 85.06 -76.92, 97.6 -81.54 M74.12 -72.96 C81.75 -76.85, 90.24 -79.23, 97.6 -81.54" stroke="#1e1e1e" stroke-width="2" fill="none"></path></g></g><mask></mask><g stroke-linecap="round"><g transform="translate(281.22470438119865 168.3333340949482) rotate(0 47.91668701171875 -42.91668701171875)"><path d="M-0.82 0.5 C15.02 -13.69, 79.26 -71.75, 95.33 -86.13 M0.96 -0.28 C16.56 -14.22, 78.49 -70.72, 94.12 -84.75" stroke="#1e1e1e" stroke-width="2" fill="none"></path></g><g transform="translate(281.22470438119865 168.3333340949482) rotate(0 47.91668701171875 -42.91668701171875)"><path d="M82.45 -62.64 C87.28 -70.63, 89.77 -77.41, 94.12 -84.75 M82.45 -62.64 C86.64 -69.41, 89.16 -76.92, 94.12 -84.75" stroke="#1e1e1e" stroke-width="2" fill="none"></path></g><g transform="translate(281.22470438119865 168.3333340949482) rotate(0 47.91668701171875 -42.91668701171875)"><path d="M70.97 -75.31 C79.46 -79.08, 85.71 -81.71, 94.12 -84.75 M70.97 -75.31 C78.61 -78.33, 84.61 -82, 94.12 -84.75" stroke="#1e1e1e" stroke-width="2" fill="none"></path></g></g><mask></mask><g stroke-linecap="round"><g transform="translate(527.8914038569112 257.4999600715107) rotate(0 67.5 -45.416656494140625)"><path d="M0.03 0.45 C22.55 -14.76, 112.59 -76.73, 135.12 -91.84 M-1.42 -0.36 C20.96 -15.41, 111.58 -75.52, 134.24 -90.84" stroke="#1e1e1e" stroke-width="2" fill="none"></path></g><g transform="translate(527.8914038569112 257.4999600715107) rotate(0 67.5 -45.416656494140625)"><path d="M119.46 -70.67 C124.74 -76.52, 126.73 -82.43, 134.24 -90.84 M119.46 -70.67 C124.28 -76.92, 129.49 -83.97, 134.24 -90.84" stroke="#1e1e1e" stroke-width="2" fill="none"></path></g><g transform="translate(527.8914038569112 257.4999600715107) rotate(0 67.5 -45.416656494140625)"><path d="M109.96 -84.88 C118.02 -86.47, 122.86 -88.12, 134.24 -90.84 M109.96 -84.88 C118 -86.12, 126.55 -88.18, 134.24 -90.84" stroke="#1e1e1e" stroke-width="2" fill="none"></path></g></g><mask></mask><g stroke-linecap="round"><g transform="translate(517.8914038569112 67.49999058908884) rotate(0 71.6666259765625 47.91667175292969)"><path d="M1.14 -0.78 C25.04 15.25, 120.04 80.28, 143.89 96.25 M0.28 1.42 C24.02 17.08, 119.29 78.59, 143.23 94.35" stroke="#1e1e1e" stroke-width="2" fill="none"></path></g><g transform="translate(517.8914038569112 67.49999058908884) rotate(0 71.6666259765625 47.91667175292969)"><path d="M118.88 88.69 C125.95 91.33, 136.33 93.85, 143.23 94.35 M118.88 88.69 C123.76 90.72, 131.11 91.9, 143.23 94.35" stroke="#1e1e1e" stroke-width="2" fill="none"></path></g><g transform="translate(517.8914038569112 67.49999058908884) rotate(0 71.6666259765625 47.91667175292969)"><path d="M128.21 74.36 C132.08 82.02, 139.25 89.46, 143.23 94.35 M128.21 74.36 C130.84 79.78, 136.01 84.32, 143.23 94.35" stroke="#1e1e1e" stroke-width="2" fill="none"></path></g></g><mask></mask><g stroke-linecap="round"><g transform="translate(695.3914038569112 166.66664708322946) rotate(0 62.08331298828125 0.833343505859375)"><path d="M-0.92 0.25 C19.8 0.44, 102.43 0.45, 123.19 0.5 M0.81 -0.66 C21.99 -0.32, 105.09 1.09, 125.4 1.42" stroke="#1e1e1e" stroke-width="2" fill="none"></path></g><g transform="translate(695.3914038569112 166.66664708322946) rotate(0 62.08331298828125 0.833343505859375)"><path d="M101.77 9.58 C107.13 6.45, 109.65 5.53, 125.4 1.42 M101.77 9.58 C105.8 7.93, 112.44 7.28, 125.4 1.42" stroke="#1e1e1e" stroke-width="2" fill="none"></path></g><g transform="translate(695.3914038569112 166.66664708322946) rotate(0 62.08331298828125 0.833343505859375)"><path d="M102.05 -7.52 C107.26 -7.11, 109.73 -4.48, 125.4 1.42 M102.05 -7.52 C105.91 -5.62, 112.49 -2.73, 125.4 1.42" stroke="#1e1e1e" stroke-width="2" fill="none"></path></g></g><mask></mask></svg>