<svg version="1.1" xmlns="http://www.w3.org/2000/svg" viewBox="0 0 959.5327971373096 330.8333435058594" width="959.5327971373096" height="330.8333435058594" class="excalidraw-svg"><!-- svg-source:excalidraw --><metadata></metadata><defs><style class="style-fonts">
      </style></defs><rect x="0" y="0" width="959.5327971373096" height="330.8333435058594" fill="#ffffff"></rect><g stroke-linecap="round" transform="translate(10 18.333343505859375) rotate(0 62.47468536069448 61.666656494140625)"><path d="M58.65 0.05 C68.02 -1.33, 79.24 1.99, 88.09 5.69 C96.94 9.4, 105.92 14.82, 111.74 22.25 C117.56 29.69, 121.2 40.7, 123.02 50.3 C124.84 59.91, 125.35 70.87, 122.66 79.88 C119.98 88.9, 113.53 97.6, 106.9 104.38 C100.26 111.16, 92.12 117.56, 82.85 120.58 C73.58 123.6, 60.96 124.14, 51.27 122.5 C41.58 120.86, 32.35 116.64, 24.7 110.72 C17.06 104.81, 9.62 95.77, 5.42 87.01 C1.21 78.25, -1.17 67.44, -0.55 58.17 C0.08 48.9, 4.34 39.56, 9.17 31.39 C13.99 23.23, 19.15 14.38, 28.39 9.19 C37.63 4, 57.8 1.4, 64.61 0.27 C71.41 -0.87, 69.39 1.3, 69.24 2.38 M78.72 1.1 C87.42 2.9, 95.63 10.79, 102.91 17.1 C110.19 23.41, 118.85 30.09, 122.4 38.97 C125.95 47.84, 125.71 60.44, 124.21 70.35 C122.71 80.27, 119.09 90.88, 113.38 98.44 C107.67 106, 98.66 111.51, 89.94 115.71 C81.23 119.91, 70.79 123.76, 61.09 123.65 C51.4 123.53, 40.3 119.38, 31.76 115.02 C23.21 110.65, 15.22 105.23, 9.82 97.46 C4.42 89.68, 0.45 77.92, -0.65 68.37 C-1.76 58.81, -0.28 49.21, 3.18 40.12 C6.65 31.04, 12.51 20.35, 20.13 13.86 C27.75 7.38, 39.3 3.31, 48.92 1.21 C58.53 -0.89, 72.95 0.72, 77.83 1.25 C82.71 1.78, 78.26 3.31, 78.17 4.4" stroke="#1e1e1e" stroke-width="2" fill="none"></path></g><g stroke-linecap="round" transform="translate(12.91668701171875 197.50003051757812) rotate(0 62.47468536069448 61.666656494140625)"><path d="M59.1 -0.5 C67.95 -1.99, 78.34 1.9, 87.12 6.01 C95.89 10.13, 105.67 16.86, 111.72 24.2 C117.78 31.54, 121.54 40.75, 123.43 50.06 C125.32 59.37, 125.98 70.89, 123.06 80.06 C120.15 89.23, 112.91 98.35, 105.96 105.07 C99 111.79, 90.49 117.63, 81.33 120.38 C72.17 123.12, 60.64 123.32, 51.01 121.53 C41.39 119.74, 31.03 115.24, 23.57 109.65 C16.12 104.07, 10.35 96.65, 6.29 88.04 C2.22 79.44, -1.37 67.66, -0.83 58.03 C-0.29 48.4, 4.53 38.32, 9.53 30.27 C14.53 22.22, 19.82 14.67, 29.17 9.74 C38.53 4.81, 58.32 1.79, 65.67 0.67 C73.03 -0.45, 73.51 1.98, 73.31 3.02 M47.71 0.92 C56.53 -2.38, 66.83 -0.13, 75.99 2.41 C85.15 4.95, 95.47 10.23, 102.67 16.16 C109.87 22.08, 115.71 29.26, 119.2 37.94 C122.69 46.61, 124.61 58.76, 123.62 68.21 C122.62 77.65, 118.57 86.51, 113.22 94.6 C107.88 102.69, 99.99 112.03, 91.56 116.75 C83.13 121.48, 72.32 122.83, 62.65 122.95 C52.97 123.07, 42.21 121.93, 33.53 117.49 C24.85 113.04, 15.89 104.23, 10.58 96.29 C5.27 88.34, 2.8 79.14, 1.65 69.81 C0.5 60.48, 0.49 49.01, 3.68 40.31 C6.88 31.62, 13.54 24.03, 20.83 17.65 C28.11 11.26, 43.22 4.17, 47.39 1.98 C51.56 -0.21, 45.78 3.27, 45.85 4.52" stroke="#1e1e1e" stroke-width="2" fill="none"></path></g><g stroke-linecap="round" transform="translate(255.39125030210073 88.33331298828125) rotate(0 10 86.25)"><path d="M5 0 C8.57 -0.69, 10.01 0.64, 15 0 M5 0 C8.16 0.47, 11.68 -0.41, 15 0 M15 0 C18.35 -0.03, 19.85 0.67, 20 5 M15 0 C16.39 -1.4, 18.3 3.18, 20 5 M20 5 C19.85 67.2, 17.05 129.77, 20 167.5 M20 5 C21.88 51.77, 21.58 99.91, 20 167.5 M20 167.5 C18.3 172.63, 20.18 170.94, 15 172.5 M20 167.5 C19.64 172.21, 17.87 174.72, 15 172.5 M15 172.5 C13.04 171.53, 9.93 171.74, 5 172.5 M15 172.5 C10.96 172.7, 7.19 172.01, 5 172.5 M5 172.5 C3.05 171.84, 0.06 169.99, 0 167.5 M5 172.5 C2.74 174.53, 1.63 170.66, 0 167.5 M0 167.5 C0.59 127.93, -0.35 87.56, 0 5 M0 167.5 C0.86 121.44, 1.6 75.87, 0 5 M0 5 C0.02 3.15, 0.35 -0.83, 5 0 M0 5 C-1.57 2.33, 1.63 -2.01, 5 0" stroke="#1e1e1e" stroke-width="2" fill="none"></path></g><g stroke-linecap="round" transform="translate(387.91680908203125 10) rotate(0 62.474685360694465 61.666656494140625)"><path d="M83.47 3.54 C92.52 5.73, 103.16 13.44, 109.58 20.55 C116.01 27.66, 119.76 37.01, 122.04 46.19 C124.33 55.37, 125.43 66.46, 123.29 75.62 C121.16 84.78, 115.67 94.03, 109.24 101.15 C102.81 108.27, 93.54 114.55, 84.73 118.32 C75.92 122.09, 66.03 124.71, 56.36 123.77 C46.68 122.82, 34.71 118.05, 26.69 112.63 C18.66 107.21, 12.76 99.49, 8.19 91.24 C3.62 82.99, -0.48 72.61, -0.72 63.11 C-0.96 53.61, 2.15 42.74, 6.74 34.27 C11.34 25.79, 19.11 17.78, 26.86 12.26 C34.61 6.75, 43.45 2.59, 53.24 1.17 C63.03 -0.25, 79.69 2.68, 85.6 3.74 C91.5 4.8, 89.11 6.49, 88.67 7.56 M79.6 2 C88.54 3.6, 98.62 11.54, 105.47 18.21 C112.32 24.88, 117.78 32.78, 120.69 42.01 C123.6 51.24, 124.6 64.09, 122.94 73.61 C121.28 83.13, 116.67 91.66, 110.74 99.14 C104.8 106.62, 96.16 114.69, 87.32 118.47 C78.49 122.25, 67.07 122.56, 57.75 121.83 C48.43 121.1, 39.49 118.85, 31.39 114.06 C23.3 109.28, 14.28 100.99, 9.18 93.14 C4.09 85.29, 1.28 76.39, 0.83 66.95 C0.37 57.5, 2.78 45.2, 6.47 36.46 C10.16 27.72, 15.56 20.16, 22.96 14.51 C30.36 8.85, 41.16 4.34, 50.87 2.5 C60.59 0.66, 76.27 3.28, 81.23 3.47 C86.2 3.66, 81.25 3, 80.67 3.64" stroke="#1e1e1e" stroke-width="2" fill="none"></path></g><g stroke-linecap="round" transform="translate(394.58331298828125 192.49996948242188) rotate(0 62.474685360694465 61.666656494140625)"><path d="M87.53 5.15 C96.29 7.86, 103.75 15.14, 109.76 22.44 C115.78 29.74, 121.56 39.75, 123.61 48.96 C125.66 58.17, 124.82 68.61, 122.07 77.69 C119.32 86.76, 113.61 96.23, 107.14 103.43 C100.66 110.62, 92.43 117.7, 83.21 120.86 C73.99 124.02, 61.39 123.95, 51.83 122.37 C42.27 120.79, 33.6 116.95, 25.87 111.4 C18.14 105.85, 9.76 97.62, 5.44 89.07 C1.13 80.52, -0.57 69.59, -0.02 60.08 C0.52 50.57, 4.06 40.3, 8.71 32.01 C13.36 23.72, 19.89 15.77, 27.88 10.33 C35.86 4.89, 45.3 -0.54, 56.62 -0.62 C67.93 -0.7, 88.41 7.26, 95.77 9.86 C103.13 12.46, 101.36 14.3, 100.77 14.99 M90.42 7.34 C98.98 10.68, 106.98 17.51, 112.49 25.48 C117.99 33.46, 122.22 45.61, 123.45 55.21 C124.68 64.81, 123.27 74.22, 119.86 83.09 C116.44 91.96, 110.21 102.26, 102.96 108.43 C95.7 114.61, 85.37 118.01, 76.32 120.12 C67.26 122.22, 57.83 123.21, 48.64 121.06 C39.45 118.92, 28.47 113.27, 21.16 107.25 C13.85 101.23, 8.06 93.77, 4.79 84.93 C1.51 76.09, 0.6 63.7, 1.51 54.2 C2.41 44.7, 4.92 35.55, 10.21 27.94 C15.51 20.33, 24.5 13.08, 33.26 8.55 C42.02 4.02, 53.06 1.04, 62.79 0.74 C72.52 0.45, 87.16 5.75, 91.63 6.77 C96.11 7.78, 90.25 5.91, 89.62 6.83" stroke="#1e1e1e" stroke-width="2" fill="none"></path></g><g stroke-linecap="round" transform="translate(429.14137237241323 223.33328247070312) rotate(0 29.166656494140625 29.166656494140625)"><path d="M22.46 1.29 C28.04 -0.59, 36.39 0.38, 41.87 2.81 C47.36 5.25, 52.94 10.35, 55.37 15.9 C57.81 21.45, 58.09 29.88, 56.51 36.11 C54.93 42.33, 50.8 49.56, 45.88 53.25 C40.96 56.94, 33.09 58.91, 27 58.24 C20.92 57.57, 13.92 53.74, 9.37 49.22 C4.82 44.7, 0.35 37.27, -0.29 31.15 C-0.94 25.03, 1.21 17.54, 5.49 12.52 C9.77 7.5, 21.01 3.08, 25.38 1.02 C29.74 -1.05, 31.63 -0.17, 31.68 0.15 M30.43 -0.67 C35.94 -0.39, 43.9 5.15, 48.46 9.54 C53.01 13.94, 56.8 19.63, 57.76 25.69 C58.73 31.75, 57.8 40.83, 54.24 45.91 C50.67 50.99, 42.6 54.7, 36.37 56.17 C30.14 57.65, 22.61 57.12, 16.85 54.74 C11.1 52.36, 4.26 47.37, 1.82 41.9 C-0.63 36.44, 0.26 28.05, 2.18 21.93 C4.1 15.82, 8.62 8.84, 13.32 5.21 C18.03 1.58, 27.56 0.83, 30.42 0.15 C33.29 -0.54, 30.18 0.82, 30.52 1.08" stroke="none" stroke-width="0" fill="#ffc9c9"></path><path d="M25.32 0.16 C31.04 -0.88, 40.31 1.6, 45.55 4.97 C50.78 8.34, 55.13 14.48, 56.74 20.38 C58.34 26.29, 57.53 34.42, 55.16 40.39 C52.79 46.36, 48.19 53.42, 42.51 56.22 C36.83 59.03, 27.13 58.85, 21.08 57.23 C15.03 55.6, 9.81 51.39, 6.19 46.48 C2.56 41.56, -0.98 33.89, -0.65 27.72 C-0.31 21.54, 3.07 13.89, 8.2 9.42 C13.32 4.95, 26.15 2.25, 30.11 0.92 C34.08 -0.41, 32.16 1.26, 31.98 1.46 M41.61 3.8 C46.84 6.48, 53.07 13.21, 55.46 18.64 C57.86 24.07, 57.82 30.54, 56 36.37 C54.18 42.19, 49.75 50.14, 44.56 53.6 C39.37 57.05, 31.1 57.61, 24.88 57.1 C18.66 56.6, 11.55 54.93, 7.24 50.57 C2.93 46.21, -0.53 37.24, -0.98 30.95 C-1.44 24.65, 0.86 18.02, 4.49 12.78 C8.13 7.54, 14.41 1.22, 20.81 -0.51 C27.2 -2.24, 39.41 1.85, 42.88 2.4 C46.36 2.95, 41.91 2.05, 41.64 2.8" stroke="#e03131" stroke-width="2" fill="none"></path></g><g stroke-linecap="round" transform="translate(668.7246952418204 85.41664708322946) rotate(0 10 86.25)"><path d="M5 0 C9.65 0.35, 11.68 0.03, 15 0 M5 0 C7.56 -0.25, 10.6 0.38, 15 0 M15 0 C19.93 -1.85, 19.58 3.02, 20 5 M15 0 C18.91 -1.67, 21.59 1.52, 20 5 M20 5 C18.91 64.59, 19.76 119.98, 20 167.5 M20 5 C21.34 68.96, 21.3 132.7, 20 167.5 M20 167.5 C18.35 169.86, 16.98 172.92, 15 172.5 M20 167.5 C17.92 169.17, 16.75 174.12, 15 172.5 M15 172.5 C13.15 171.64, 9.48 173.12, 5 172.5 M15 172.5 C12.56 172.9, 10.02 172.42, 5 172.5 M5 172.5 C0.6 174.15, -0.14 172.76, 0 167.5 M5 172.5 C2.28 173.64, 0.31 170.44, 0 167.5 M0 167.5 C1.16 132.69, 1.91 96.86, 0 5 M0 167.5 C0.39 106.97, 1.05 44.98, 0 5 M0 5 C1.74 2.95, 0.67 -1.74, 5 0 M0 5 C-0.3 2.04, 3.88 0.19, 5 0" stroke="#1e1e1e" stroke-width="2" fill="none"></path></g><g stroke-linecap="round" transform="translate(824.5834264159206 111.66667760080759) rotate(0 62.47468536069448 61.666656494140625)"><path d="M62.3 -0.84 C71.4 -1.82, 82.45 1.72, 91.19 6.48 C99.92 11.23, 109.33 19.72, 114.73 27.7 C120.13 35.67, 122.48 44.94, 123.61 54.34 C124.73 63.74, 124.9 75.02, 121.45 84.09 C118.01 93.15, 110.34 102.37, 102.94 108.73 C95.54 115.08, 86.25 119.93, 77.05 122.21 C67.84 124.48, 57.24 124.71, 47.7 122.38 C38.17 120.05, 27.24 114.9, 19.86 108.24 C12.48 101.57, 6.5 91.29, 3.42 82.39 C0.35 73.49, 0.22 64.2, 1.39 54.84 C2.57 45.48, 4.97 34.24, 10.46 26.22 C15.95 18.19, 25.11 11.22, 34.32 6.72 C43.54 2.22, 60.44 0.22, 65.76 -0.78 C71.08 -1.78, 66.39 -0.31, 66.22 0.7 M39.31 3.62 C47.59 -0.51, 59.47 0.13, 69.06 1.12 C78.64 2.11, 88.52 4.3, 96.82 9.54 C105.12 14.78, 114.16 23.97, 118.86 32.56 C123.55 41.16, 125.06 51.24, 125 61.09 C124.93 70.95, 122.8 83.16, 118.46 91.7 C114.13 100.24, 107.2 106.93, 98.98 112.34 C90.76 117.74, 78.95 122.72, 69.15 124.13 C59.35 125.53, 49.01 124.23, 40.16 120.75 C31.31 117.28, 22.43 110.7, 16.07 103.26 C9.71 95.82, 4.58 85.72, 2 76.11 C-0.58 66.49, -1.58 54.82, 0.59 45.56 C2.76 36.3, 8.32 27.42, 15.02 20.55 C21.72 13.68, 36.46 6.75, 40.77 4.37 C45.07 1.99, 40.69 5.46, 40.83 6.25" stroke="#1e1e1e" stroke-width="2" fill="none"></path></g><g stroke-linecap="round"><g transform="translate(142.89133035776115 79.16664708322946) rotate(0 52.0833740234375 48.75)"><path d="M0.01 -0.02 C17.29 16.31, 86.89 80.77, 104.08 96.9 M-1.44 -1.08 C15.64 15.5, 85.26 81.66, 103.08 98.13" stroke="#1e1e1e" stroke-width="2" fill="none"></path></g><g transform="translate(142.89133035776115 79.16664708322946) rotate(0 52.0833740234375 48.75)"><path d="M80.1 88.28 C87.64 91.41, 94.33 93.15, 103.08 98.13 M80.1 88.28 C86.32 89.55, 90.81 93.51, 103.08 98.13" stroke="#1e1e1e" stroke-width="2" fill="none"></path></g><g transform="translate(142.89133035776115 79.16664708322946) rotate(0 52.0833740234375 48.75)"><path d="M91.81 75.81 C95.33 83.1, 98.12 88.99, 103.08 98.13 M91.81 75.81 C95.14 80.15, 96.82 87.09, 103.08 98.13" stroke="#1e1e1e" stroke-width="2" fill="none"></path></g></g><mask></mask><g stroke-linecap="round"><g transform="translate(147.05807840463615 260.8333340949482) rotate(0 49.1666259765625 -41.25)"><path d="M-0.09 -0.6 C16.13 -14.47, 81.06 -69.71, 97.32 -83.23 M-1.6 1.7 C14.98 -12.02, 82.59 -67.85, 99.5 -82.08" stroke="#1e1e1e" stroke-width="2" fill="none"></path></g><g transform="translate(147.05807840463615 260.8333340949482) rotate(0 49.1666259765625 -41.25)"><path d="M86.91 -60.48 C89.71 -68.66, 93.27 -74.95, 99.5 -82.08 M86.91 -60.48 C91.13 -67.58, 96.2 -76.88, 99.5 -82.08" stroke="#1e1e1e" stroke-width="2" fill="none"></path></g><g transform="translate(147.05807840463615 260.8333340949482) rotate(0 49.1666259765625 -41.25)"><path d="M75.97 -73.62 C82.06 -77.84, 88.92 -80.17, 99.5 -82.08 M75.97 -73.62 C84.3 -75.82, 93.36 -80.31, 99.5 -82.08" stroke="#1e1e1e" stroke-width="2" fill="none"></path></g></g><mask></mask><g stroke-linecap="round"><g transform="translate(281.22470438119865 168.3333340949482) rotate(0 47.91668701171875 -42.91668701171875)"><path d="M-1.01 -0.73 C14.83 -14.81, 78.65 -70.68, 94.95 -85.05 M0.65 1.5 C16.88 -12.86, 81.22 -72.14, 97.2 -86.75" stroke="#1e1e1e" stroke-width="2" fill="none"></path></g><g transform="translate(281.22470438119865 168.3333340949482) rotate(0 47.91668701171875 -42.91668701171875)"><path d="M85.67 -64.57 C87.93 -72.43, 93.84 -75.86, 97.2 -86.75 M85.67 -64.57 C88.36 -69.97, 91.19 -73.91, 97.2 -86.75" stroke="#1e1e1e" stroke-width="2" fill="none"></path></g><g transform="translate(281.22470438119865 168.3333340949482) rotate(0 47.91668701171875 -42.91668701171875)"><path d="M74.11 -77.17 C79.69 -81.25, 88.97 -80.99, 97.2 -86.75 M74.11 -77.17 C79.17 -80.03, 84.39 -81.36, 97.2 -86.75" stroke="#1e1e1e" stroke-width="2" fill="none"></path></g></g><mask></mask><g stroke-linecap="round"><g transform="translate(527.8914038569112 257.4999600715107) rotate(0 67.5 -45.416656494140625)"><path d="M-0.88 0.79 C21.94 -14.41, 113.35 -76.81, 135.96 -91.95 M0.85 0.16 C23.69 -14.87, 113.34 -75.64, 135.51 -90.99" stroke="#1e1e1e" stroke-width="2" fill="none"></path></g><g transform="translate(527.8914038569112 257.4999600715107) rotate(0 67.5 -45.416656494140625)"><path d="M120.94 -70.68 C125.52 -73.35, 125.49 -79.75, 135.51 -90.99 M120.94 -70.68 C126.94 -78.11, 132.2 -85.02, 135.51 -90.99" stroke="#1e1e1e" stroke-width="2" fill="none"></path></g><g transform="translate(527.8914038569112 257.4999600715107) rotate(0 67.5 -45.416656494140625)"><path d="M111.29 -84.79 C117.86 -84.36, 119.91 -87.71, 135.51 -90.99 M111.29 -84.79 C120.87 -86.96, 129.68 -88.68, 135.51 -90.99" stroke="#1e1e1e" stroke-width="2" fill="none"></path></g></g><mask></mask><g stroke-linecap="round"><g transform="translate(517.8914038569112 67.49999058908884) rotate(0 71.6666259765625 47.91667175292969)"><path d="M0.96 -1.11 C24.95 14.86, 119.3 80.63, 143.08 96.65 M0 0.92 C23.89 16.49, 118.16 79.13, 142 94.95" stroke="#1e1e1e" stroke-width="2" fill="none"></path></g><g transform="translate(517.8914038569112 67.49999058908884) rotate(0 71.6666259765625 47.91667175292969)"><path d="M117.7 89.08 C121.38 89.79, 130.09 92.05, 142 94.95 M117.7 89.08 C123.86 90.93, 129.71 90.82, 142 94.95" stroke="#1e1e1e" stroke-width="2" fill="none"></path></g><g transform="translate(517.8914038569112 67.49999058908884) rotate(0 71.6666259765625 47.91667175292969)"><path d="M127.15 74.83 C128.79 78.84, 135.36 84.32, 142 94.95 M127.15 74.83 C131.26 79.92, 134.97 83.05, 142 94.95" stroke="#1e1e1e" stroke-width="2" fill="none"></path></g></g><mask></mask><g stroke-linecap="round"><g transform="translate(695.3914038569112 166.66664708322946) rotate(0 62.08331298828125 0.833343505859375)"><path d="M-0.25 0.81 C20.33 1.13, 103.59 0.67, 124.47 0.8 M1.81 0.2 C22.18 0.74, 103.21 1.43, 123.68 1.88" stroke="#1e1e1e" stroke-width="2" fill="none"></path></g><g transform="translate(695.3914038569112 166.66664708322946) rotate(0 62.08331298828125 0.833343505859375)"><path d="M100.07 10.09 C110.46 7.53, 116.62 5.29, 123.68 1.88 M100.07 10.09 C107.87 6.61, 114.51 4.63, 123.68 1.88" stroke="#1e1e1e" stroke-width="2" fill="none"></path></g><g transform="translate(695.3914038569112 166.66664708322946) rotate(0 62.08331298828125 0.833343505859375)"><path d="M100.32 -7.01 C110.46 -3.08, 116.53 1.17, 123.68 1.88 M100.32 -7.01 C108.15 -5.46, 114.71 -2.43, 123.68 1.88" stroke="#1e1e1e" stroke-width="2" fill="none"></path></g></g><mask></mask><g stroke-linecap="round" transform="translate(422.2659220184813 37.36128234863281) rotate(0 29.166656494140625 29.166656494140625)"><path d="M20.85 0.96 C26.32 -1.05, 34.84 -0.03, 40.65 2.42 C46.46 4.88, 52.91 10.25, 55.69 15.67 C58.48 21.09, 58.77 28.75, 57.35 34.95 C55.93 41.16, 52.08 49, 47.18 52.89 C42.28 56.78, 34.19 58.55, 27.95 58.29 C21.7 58.04, 14.34 55.67, 9.72 51.35 C5.11 47.04, 0.97 38.68, 0.25 32.4 C-0.47 26.13, 1.16 19.08, 5.39 13.71 C9.62 8.33, 21.89 2.21, 25.63 0.15 C29.36 -1.92, 28.05 0.81, 27.8 1.34 M20.58 2.92 C26.01 0.83, 33.39 0.56, 38.9 2.38 C44.42 4.19, 50.48 8.4, 53.67 13.79 C56.85 19.18, 58.81 28.19, 57.99 34.7 C57.16 41.21, 53.49 49.09, 48.73 52.84 C43.97 56.58, 35.85 57.4, 29.43 57.16 C23.02 56.92, 15.14 55.56, 10.24 51.37 C5.34 47.18, 0.97 38.13, 0.04 32.01 C-0.89 25.9, 1.16 19.86, 4.63 14.66 C8.11 9.46, 18.32 3.02, 20.91 0.79 C23.5 -1.43, 20.05 0.54, 20.19 1.32" stroke="none" stroke-width="0" fill="#ffc9c9"></path><path d="M27.98 0.99 C34.03 0.33, 42.34 2.98, 47.31 6.62 C52.28 10.26, 56.67 16.95, 57.81 22.83 C58.95 28.72, 57.16 36.38, 54.14 41.91 C51.12 47.45, 45.3 53.51, 39.7 56.05 C34.09 58.6, 26.37 58.96, 20.51 57.19 C14.64 55.42, 7.98 50.85, 4.49 45.45 C1.01 40.05, -1.12 31.06, -0.39 24.79 C0.34 18.52, 2.75 11.97, 8.89 7.85 C15.04 3.73, 30.49 0.48, 36.49 0.07 C42.49 -0.34, 45.11 4.93, 44.91 5.4 M27.37 -1.06 C33.1 -2.27, 40.43 0.61, 45.63 4.41 C50.84 8.22, 57.12 15.32, 58.6 21.78 C60.09 28.23, 57.46 37.55, 54.54 43.15 C51.62 48.75, 46.83 53.05, 41.06 55.37 C35.28 57.68, 26.06 58.88, 19.89 57.05 C13.71 55.22, 7.23 49.37, 4 44.4 C0.76 39.43, -0.41 33.11, 0.45 27.23 C1.31 21.35, 4.72 13.83, 9.16 9.11 C13.61 4.4, 24.07 0.5, 27.1 -1.08 C30.13 -2.65, 27.21 -1.21, 27.34 -0.35" stroke="#e03131" stroke-width="2" fill="none"></path></g></svg>