<svg version="1.1" xmlns="http://www.w3.org/2000/svg" viewBox="0 0 1666.6301924306595 1075.0699575117778" width="1666.6301924306595" height="1075.0699575117778" filter="invert(93%) hue-rotate(180deg)" class="excalidraw-svg"><!-- svg-source:excalidraw --><metadata></metadata><defs><style class="style-fonts">
      </style></defs><rect x="0" y="0" width="1666.6301924306595" height="1075.0699575117778" fill="#ffffff"></rect><g stroke-linecap="round" transform="translate(714.7788219249653 652.2018487754747) rotate(0 53.82284044768164 73.39480590820312)"><path d="M26.91 0 C48.31 0.29, 65.9 2.3, 80.73 0 C99.36 -2.93, 107.65 10.23, 107.65 26.91 C109.81 49.54, 111.03 66.5, 107.65 119.88 C106.66 135.41, 97.11 144.62, 80.73 146.79 C63.56 149.97, 50.22 147.19, 26.91 146.79 C11.28 143.96, -1.08 136.03, 0 119.88 C0.44 89.66, 4.38 62.28, 0 26.91 C2.43 10.14, 5.49 1.06, 26.91 0" stroke="none" stroke-width="0" fill="#1e1e1e"></path><path d="M26.91 0 C43.98 0.14, 59.92 0.46, 80.73 0 M26.91 0 C48.42 -0.94, 68.27 -0.04, 80.73 0 M80.73 0 C97.73 1.75, 105.69 8.32, 107.65 26.91 M80.73 0 C98.38 -0.12, 109.5 11.17, 107.65 26.91 M107.65 26.91 C107.1 61.75, 108.43 97.53, 107.65 119.88 M107.65 26.91 C106.93 63.73, 107.82 98.04, 107.65 119.88 M107.65 119.88 C109.54 137.31, 96.73 145.9, 80.73 146.79 M107.65 119.88 C108.3 139.53, 96.48 148.49, 80.73 146.79 M80.73 146.79 C61.01 145.06, 41.23 147.95, 26.91 146.79 M80.73 146.79 C60.72 146.89, 39.69 147.02, 26.91 146.79 M26.91 146.79 C9.94 145.45, -0.21 135.82, 0 119.88 M26.91 146.79 C10.03 146.15, -2.25 139.37, 0 119.88 M0 119.88 C0.82 101.54, 1.31 81.96, 0 26.91 M0 119.88 C1.72 97.65, 1.46 75.13, 0 26.91 M0 26.91 C1.2 10.82, 10.34 -1.28, 26.91 0 M0 26.91 C-2.24 10.82, 11 1.84, 26.91 0" stroke="#1e1e1e" stroke-width="2" fill="none"></path></g><g stroke-linecap="round" transform="translate(735.334067082802 652.2018487754747) rotate(0 69.321222671727 72.62221926195413)"><path d="M93.35 5.08 C102.92 7.7, 112.58 15.06, 119.39 22.37 C126.19 29.69, 131.04 39.17, 134.2 48.98 C137.37 58.78, 139.54 70.66, 138.37 81.2 C137.2 91.73, 132.55 103.49, 127.17 112.21 C121.8 120.92, 114.5 128, 106.1 133.49 C97.69 138.99, 86.87 143.91, 76.74 145.18 C66.6 146.44, 54.79 144.56, 45.31 141.08 C35.83 137.6, 26.68 131.61, 19.85 124.3 C13.02 116.98, 7.64 107.26, 4.34 97.18 C1.03 87.11, -0.95 74.51, 0.02 63.85 C0.99 53.19, 4.79 42.05, 10.14 33.24 C15.5 24.43, 23.6 16.47, 32.14 11.01 C40.67 5.56, 49.34 0.53, 61.37 0.52 C73.41 0.5, 95.41 7.78, 104.35 10.92 C113.3 14.06, 115.48 18.61, 115.03 19.38 M57.74 2.05 C67.07 -0.7, 79.33 -0.61, 89.33 2.1 C99.32 4.82, 110.11 10.92, 117.7 18.32 C125.28 25.72, 131.62 36.5, 134.84 46.51 C138.06 56.53, 138.04 67.96, 137 78.42 C135.97 88.88, 133.26 100.33, 128.64 109.26 C124.03 118.2, 117.49 126.05, 109.32 132.04 C101.14 138.03, 89.82 143.77, 79.58 145.2 C69.34 146.64, 57.2 143.91, 47.89 140.66 C38.57 137.41, 30.67 132.82, 23.69 125.71 C16.71 118.61, 9.86 107.89, 6.01 98.01 C2.15 88.12, 0.08 76.57, 0.55 66.39 C1.01 56.21, 3.72 45.96, 8.81 36.91 C13.91 27.85, 22.64 18.1, 31.13 12.03 C39.62 5.97, 55.22 2.36, 59.75 0.51 C64.28 -1.34, 58.09 -0.44, 58.32 0.95" stroke="none" stroke-width="0" fill="#1e1e1e"></path><path d="M77.31 1.14 C86.6 1.24, 96.93 5.45, 105.4 10.86 C113.87 16.26, 122.49 24.78, 128.1 33.57 C133.72 42.35, 138.04 53.08, 139.09 63.58 C140.14 74.07, 137.88 86.33, 134.41 96.54 C130.93 106.75, 125.12 117.26, 118.24 124.83 C111.36 132.39, 102.72 138.45, 93.11 141.93 C83.5 145.4, 70.67 146.98, 60.58 145.68 C50.48 144.39, 40.74 139.78, 32.54 134.13 C24.35 128.49, 16.62 120.75, 11.41 111.79 C6.2 102.84, 2.45 91, 1.28 80.39 C0.12 69.78, 1.11 57.92, 4.45 48.14 C7.79 38.35, 14.41 28.87, 21.32 21.68 C28.23 14.49, 36.08 8.61, 45.92 5 C55.77 1.39, 74.15 0.27, 80.39 0 C86.64 -0.27, 83.4 2.18, 83.38 3.38 M94.45 4.42 C103.35 6.62, 111.61 14.01, 118.59 21.98 C125.57 29.94, 132.89 41.87, 136.31 52.23 C139.74 62.59, 140.48 74.06, 139.13 84.16 C137.77 94.26, 133.77 104.33, 128.17 112.83 C122.58 121.32, 114.31 129.93, 105.54 135.13 C96.77 140.32, 85.78 143.39, 75.55 144.01 C65.32 144.63, 53.5 142.54, 44.14 138.85 C34.79 135.15, 26.49 129.1, 19.42 121.85 C12.35 114.6, 5.07 105.14, 1.71 95.37 C-1.65 85.6, -2.6 73.6, -0.73 63.22 C1.15 52.85, 7.03 41.76, 12.95 33.12 C18.87 24.48, 26.33 17.02, 34.79 11.39 C43.25 5.76, 53.98 0.68, 63.71 -0.65 C73.43 -1.98, 87.86 2.21, 93.13 3.41 C98.39 4.61, 95.33 5.13, 95.29 6.53" stroke="#1e1e1e" stroke-width="2" fill="none"></path></g><g stroke-linecap="round" transform="translate(568.3385233013591 689.8707932083896) rotate(0 50.52405085463363 33.48338098181054)"><path d="M63.75 8.5 C71.79 10.52, 78.67 19.94, 88.3 25.5 C98.23 34.13, 100.31 36.11, 88.3 42.5 C78.84 45.58, 69.52 51.5, 63.75 58.47 C51.27 65.03, 51.36 66.35, 38.25 58.47 C30.52 49.52, 17.29 44.41, 12.75 42.5 C-0.12 31.17, 2.94 33.13, 12.75 25.5 C20.7 23.13, 20.56 19.16, 38.25 8.5 C49.21 0.94, 53.13 -1.31, 63.75 8.5" stroke="none" stroke-width="0" fill="#1e1e1e"></path><path d="M63.75 8.5 C72.93 12.42, 79.05 20.24, 88.3 25.5 M63.75 8.5 C68.49 13.01, 73.25 15.46, 88.3 25.5 M88.3 25.5 C100.79 33.89, 102.66 35.91, 88.3 42.5 M88.3 25.5 C102.74 31.88, 103.13 34.35, 88.3 42.5 M88.3 42.5 C82.64 46.92, 74.5 51.52, 63.75 58.47 M88.3 42.5 C79.56 48.45, 67.9 54.6, 63.75 58.47 M63.75 58.47 C51.57 68.45, 49.1 68.44, 38.25 58.47 M63.75 58.47 C52.26 68.95, 51.16 66.23, 38.25 58.47 M38.25 58.47 C34.74 56.85, 28.96 53.71, 12.75 42.5 M38.25 58.47 C31.67 53.42, 24.15 48.75, 12.75 42.5 M12.75 42.5 C0.93 33.44, -1.96 35.35, 12.75 25.5 M12.75 42.5 C-2.23 35.67, 1.67 35.72, 12.75 25.5 M12.75 25.5 C19.75 18.33, 27.28 16.32, 38.25 8.5 M12.75 25.5 C21.36 20.99, 29.56 14, 38.25 8.5 M38.25 8.5 C49.05 1.61, 52.76 1.6, 63.75 8.5 M38.25 8.5 C52.93 -1.53, 50.99 0.47, 63.75 8.5" stroke="#1e1e1e" stroke-width="2" fill="none"></path></g><g stroke-linecap="round" transform="translate(567.1426968981566 679.1083238982997) rotate(0 30.394130030784652 42.25283486502519)"><path d="M15.2 0 C26.26 1.7, 34.49 0.58, 45.59 0 C54.99 2.11, 62.81 8.39, 60.79 15.2 C58.96 26.8, 60.79 40.81, 60.79 69.31 C61.15 78.82, 58.8 87.1, 45.59 84.51 C35.13 82.29, 26.72 81.25, 15.2 84.51 C8 83.64, -2.64 82.5, 0 69.31 C-4.14 57.8, -2.45 45.12, 0 15.2 C2.13 3.75, 4.73 1.87, 15.2 0" stroke="none" stroke-width="0" fill="#ffffff"></path><path d="M15.2 0 C25.33 1.55, 33.1 -0.43, 45.59 0 M15.2 0 C23.5 -0.59, 33.63 -0.32, 45.59 0 M45.59 0 C57.34 1.91, 62.26 3.22, 60.79 15.2 M45.59 0 C57.8 0.35, 60.92 6.95, 60.79 15.2 M60.79 15.2 C62.33 33.73, 63.2 54.93, 60.79 69.31 M60.79 15.2 C60.33 27.95, 61.58 42.35, 60.79 69.31 M60.79 69.31 C58.88 80.92, 56.81 86.23, 45.59 84.51 M60.79 69.31 C60.95 78.7, 53.69 82.97, 45.59 84.51 M45.59 84.51 C36.16 86.61, 23.36 86.45, 15.2 84.51 M45.59 84.51 C36.81 83.3, 28.7 84.02, 15.2 84.51 M15.2 84.51 C3.11 85.86, -1.94 80.89, 0 69.31 M15.2 84.51 C6.73 86.23, 0.62 81.72, 0 69.31 M0 69.31 C-1.66 55.41, 0.69 39.07, 0 15.2 M0 69.31 C0.36 51.98, -1.3 36.73, 0 15.2 M0 15.2 C1.76 6.66, 6.75 -1.33, 15.2 0 M0 15.2 C-0.01 5.53, 5.24 -1.51, 15.2 0" stroke="transparent" stroke-width="2" fill="none"></path></g><g stroke-linecap="round" transform="translate(669.4661579436979 715.8374932733504) rotate(0 9.1915285414253 8.534982949802341)"><path d="M11.35 0.1 C13.1 0.22, 14.89 1.19, 15.98 2.69 C17.07 4.18, 17.84 7.12, 17.89 9.07 C17.94 11.03, 17.47 13.06, 16.29 14.42 C15.1 15.78, 12.65 16.95, 10.77 17.25 C8.89 17.55, 6.76 17.3, 5 16.24 C3.25 15.18, 0.88 12.62, 0.21 10.91 C-0.46 9.21, 0.17 7.56, 0.98 6 C1.78 4.44, 3.41 2.5, 5.05 1.54 C6.69 0.57, 9.74 0.37, 10.82 0.19 C11.89 0.01, 11.53 0.27, 11.5 0.46 M9.89 -0.58 C11.87 -0.63, 13.98 0.7, 15.46 2.11 C16.93 3.52, 18.39 6.09, 18.75 7.88 C19.11 9.66, 18.79 11.42, 17.62 12.81 C16.44 14.19, 13.77 15.66, 11.71 16.18 C9.66 16.71, 7.09 16.65, 5.31 15.95 C3.54 15.26, 1.91 13.61, 1.08 12.04 C0.24 10.47, -0.23 8.15, 0.3 6.52 C0.83 4.9, 2.7 3.29, 4.27 2.28 C5.83 1.28, 8.9 0.88, 9.69 0.49 C10.49 0.1, 9.11 -0.1, 9.03 -0.05" stroke="none" stroke-width="0" fill="#1e1e1e"></path><path d="M8.92 -0.46 C10.74 -0.68, 12.85 0.32, 14.37 1.53 C15.9 2.74, 17.47 4.97, 18.07 6.81 C18.66 8.65, 18.88 10.93, 17.96 12.59 C17.04 14.24, 14.39 16.06, 12.53 16.76 C10.67 17.46, 8.55 17.3, 6.8 16.78 C5.05 16.27, 3.07 15.19, 2.02 13.65 C0.96 12.12, 0.3 9.46, 0.47 7.56 C0.64 5.65, 1.58 3.44, 3.03 2.22 C4.48 1, 8.24 0.5, 9.17 0.24 C10.1 -0.02, 8.7 0.62, 8.61 0.65 M7.45 0.61 C9.33 0.32, 12.92 1.19, 14.69 2.07 C16.46 2.95, 17.68 4.32, 18.06 5.89 C18.44 7.45, 17.68 9.63, 16.95 11.45 C16.22 13.28, 15.25 15.87, 13.7 16.85 C12.15 17.83, 9.5 17.93, 7.63 17.36 C5.77 16.78, 3.65 14.96, 2.49 13.39 C1.33 11.81, 0.59 9.76, 0.66 7.89 C0.72 6.01, 1.66 3.57, 2.9 2.14 C4.14 0.71, 7.15 -0.34, 8.09 -0.7 C9.03 -1.05, 8.63 -0.34, 8.54 0.01" stroke="#1e1e1e" stroke-width="2" fill="none"></path></g><g stroke-linecap="round"><g transform="translate(706.016087446008 763.5252684315287) rotate(0 -301.3416203842211 0)"><path d="M0 0 C-221.67 -1.12, -442.73 -1.53, -602.68 0 M0 0 C-160.82 0.25, -322 -0.5, -602.68 0" stroke="#1e1e1e" stroke-width="4" fill="none"></path></g></g><mask></mask><g stroke-linecap="round" transform="translate(712.2013014493123 342.55907302417364) rotate(0 53.82284044768164 73.39480590820312)"><path d="M26.91 0 C44.57 -1.88, 63.1 -2.46, 80.73 0 C96.51 0.27, 105.71 9.33, 107.65 26.91 C109.39 55.51, 106.25 78.41, 107.65 119.88 C105.86 137.7, 95.85 149.73, 80.73 146.79 C63.45 150.05, 52.21 144.13, 26.91 146.79 C10.03 145, 0.94 139.95, 0 119.88 C-2.41 92.07, 3.69 70.43, 0 26.91 C2.85 6.05, 9.83 -2.1, 26.91 0" stroke="none" stroke-width="0" fill="#1e1e1e"></path><path d="M26.91 0 C39.87 0.27, 54.02 2.14, 80.73 0 M26.91 0 C49.1 0.65, 69.54 1.31, 80.73 0 M80.73 0 C99.85 1.71, 107.05 10.05, 107.65 26.91 M80.73 0 C97.66 2.24, 108.69 7.68, 107.65 26.91 M107.65 26.91 C106.52 64.15, 108.89 98.35, 107.65 119.88 M107.65 26.91 C108.22 61.35, 107.27 95.76, 107.65 119.88 M107.65 119.88 C108.77 139.6, 100.29 148.19, 80.73 146.79 M107.65 119.88 C109.78 137.17, 100.63 146.46, 80.73 146.79 M80.73 146.79 C59.99 147.66, 42.69 144.78, 26.91 146.79 M80.73 146.79 C61.67 147.93, 41.44 148.17, 26.91 146.79 M26.91 146.79 C8.82 145.61, -1.62 135.84, 0 119.88 M26.91 146.79 C11.19 147.22, 1.63 138.01, 0 119.88 M0 119.88 C-2.14 84.45, 0.75 54.67, 0 26.91 M0 119.88 C-0.79 84.76, -0.7 48.58, 0 26.91 M0 26.91 C1.28 9.35, 7.34 0, 26.91 0 M0 26.91 C0.8 7.17, 9.05 -0.47, 26.91 0" stroke="#1e1e1e" stroke-width="2" fill="none"></path></g><g stroke-linecap="round" transform="translate(732.7565466071487 342.55907302417364) rotate(0 69.321222671727 72.62221926195413)"><path d="M41.07 5.98 C49.36 1.07, 61.74 0.07, 71.98 0.65 C82.22 1.23, 93.71 4.67, 102.51 9.47 C111.32 14.28, 119.09 21.21, 124.8 29.45 C130.52 37.7, 135.01 48.58, 136.81 58.97 C138.62 69.35, 138.22 81.55, 135.61 91.77 C133 101.99, 127.65 112.24, 121.15 120.31 C114.65 128.37, 105.62 135.99, 96.62 140.15 C87.63 144.31, 77.06 145.98, 67.18 145.27 C57.3 144.56, 46.35 140.95, 37.33 135.91 C28.31 130.87, 19.12 123.5, 13.08 115.02 C7.05 106.55, 2.76 95.34, 1.12 85.06 C-0.51 74.77, 0.73 63.17, 3.25 53.31 C5.77 43.45, 8.51 34.19, 16.22 25.89 C23.94 17.58, 42.33 7.59, 49.53 3.49 C56.73 -0.61, 58.94 0.33, 59.42 1.3 M78.25 1.4 C87.5 1.49, 97.58 4.9, 106.24 10.49 C114.89 16.09, 124.63 25.94, 130.18 34.96 C135.73 43.99, 138.78 54.3, 139.53 64.64 C140.28 74.99, 138.43 86.89, 134.66 97.03 C130.9 107.16, 124.09 118.14, 116.96 125.47 C109.83 132.8, 101.21 137.85, 91.89 140.98 C82.58 144.12, 71.31 145.79, 61.09 144.31 C50.86 142.82, 38.86 137.63, 30.53 132.06 C22.2 126.49, 16.24 119.65, 11.09 110.9 C5.95 102.16, 0.84 90.06, -0.35 79.59 C-1.55 69.12, 0.3 58.2, 3.93 48.08 C7.55 37.95, 14.2 26.41, 21.42 18.84 C28.63 11.26, 37.8 5.78, 47.23 2.62 C56.66 -0.53, 72.61 0.1, 78.01 -0.09 C83.4 -0.29, 79.8 0.2, 79.58 1.45" stroke="none" stroke-width="0" fill="#1e1e1e"></path><path d="M95.64 6.75 C104.68 9.55, 114.79 17.04, 121.68 24.9 C128.56 32.75, 134.18 43.82, 136.96 53.89 C139.75 63.95, 140.22 75.12, 138.38 85.29 C136.55 95.45, 131.82 106.24, 125.94 114.87 C120.07 123.49, 112.16 131.82, 103.14 137.03 C94.13 142.23, 82.09 145.88, 71.87 146.12 C61.65 146.35, 51.02 142.67, 41.82 138.43 C32.62 134.19, 23.1 128.6, 16.67 120.69 C10.24 112.78, 5.71 101.07, 3.24 90.99 C0.77 80.91, 0.04 70.37, 1.85 60.2 C3.66 50.04, 8.39 38.74, 14.1 30.01 C19.82 21.27, 27.58 12.68, 36.15 7.79 C44.72 2.89, 54.47 0.4, 65.54 0.64 C76.62 0.88, 95.75 7.06, 102.59 9.22 C109.43 11.37, 107.31 12.48, 106.57 13.56 M64.13 -1.31 C73.55 -3.02, 86.37 0.38, 95.48 4.66 C104.58 8.94, 112.32 16.39, 118.77 24.35 C125.22 32.32, 130.79 42.39, 134.15 52.45 C137.51 62.51, 140.14 74.27, 138.93 84.72 C137.73 95.17, 132.79 106.82, 126.92 115.15 C121.06 123.48, 112.71 129.97, 103.74 134.71 C94.78 139.44, 82.88 142.61, 73.14 143.57 C63.4 144.52, 54.25 144.04, 45.3 140.45 C36.36 136.86, 26.36 129.56, 19.47 122.03 C12.58 114.5, 6.88 105.49, 3.94 95.27 C1 85.04, 0.7 71.1, 1.82 60.68 C2.94 50.27, 4.95 41.1, 10.67 32.79 C16.38 24.49, 26.96 16.45, 36.11 10.85 C45.26 5.25, 60.84 0.68, 65.55 -0.81 C70.26 -2.29, 64.49 0.73, 64.38 1.94" stroke="#1e1e1e" stroke-width="2" fill="none"></path></g><g stroke-linecap="round"><g transform="translate(707.2013014493124 370.16526361194684) rotate(0 -297.71962214530316 -0.00002265575812998577)"><path d="M0 0 C-170.33 2.51, -342.92 2.65, -595.44 0 M0 0 C-187.57 2.29, -375.73 2.16, -595.44 0" stroke="#1e1e1e" stroke-width="4" fill="none"></path></g></g><mask></mask><g stroke-linecap="round" transform="translate(212.25577935581578 356.8443131673902) rotate(0 14.611566146722566 12.785145819534591)"><path d="M6.39 0 C13.62 0, 18.48 -2.58, 22.83 0 C26.01 -1.79, 29.1 -0.69, 29.22 6.39 C31.13 9.71, 30.72 16.9, 29.22 19.18 C25.74 24.49, 25.3 26.51, 22.83 25.57 C18.46 23.43, 8.3 28.45, 6.39 25.57 C1.67 28.42, -2.92 24.3, 0 19.18 C1.48 15.13, 1.34 12.52, 0 6.39 C-1.94 -1.01, 4.91 1.96, 6.39 0" stroke="none" stroke-width="0" fill="#ffffff"></path><path d="M6.39 0 C14.15 0.96, 20.63 -0.5, 22.83 0 M6.39 0 C12.58 -0.62, 18.8 -0.37, 22.83 0 M22.83 0 C25.15 -0.89, 29.79 3.62, 29.22 6.39 M22.83 0 C24.9 1.7, 30.48 4.12, 29.22 6.39 M29.22 6.39 C28.33 11.04, 30.32 15.27, 29.22 19.18 M29.22 6.39 C29.88 11.03, 29.65 15.43, 29.22 19.18 M29.22 19.18 C29.01 21.44, 28.02 25.01, 22.83 25.57 M29.22 19.18 C26.97 24.99, 24.86 27.24, 22.83 25.57 M22.83 25.57 C18.34 25.49, 9.62 24.28, 6.39 25.57 M22.83 25.57 C20.11 25.67, 16.72 26.36, 6.39 25.57 M6.39 25.57 C3.5 24.29, -1.95 25.05, 0 19.18 M6.39 25.57 C4.16 27.41, 1.93 21.91, 0 19.18 M0 19.18 C-0.86 16.17, 0.22 10.48, 0 6.39 M0 19.18 C-0.02 15.21, 0.33 11.86, 0 6.39 M0 6.39 C1.85 1.22, 1.58 -1.34, 6.39 0 M0 6.39 C-1 0.74, 2.31 -1.24, 6.39 0" stroke="#ffffff" stroke-width="4" fill="none"></path></g><g stroke-linecap="round"><g transform="translate(632.9309569597259 728.2103404894744) rotate(0 -190.84913771557817 -328.572103176179)"><path d="M0 0 C8.84 -0.74, 15.33 -1.02, 23.32 0 M0 0 C10.21 -0.12, 17.55 -0.32, 23.32 0 M23.32 0 C25.35 1.49, 23.6 0.75, 25.51 -2.19 M23.32 0 C26.04 1.99, 25.67 -1.47, 25.51 -2.19 M25.51 -2.19 C25.51 -2.19, 25.51 -2.19, 25.51 -2.19 M25.51 -2.19 C25.51 -2.19, 25.51 -2.19, 25.51 -2.19 M25.51 -2.19 C26.43 -4.21, 22.82 -3.03, 23.32 -4.38 M25.51 -2.19 C23.28 -1.98, 26.45 -2.66, 23.32 -4.38 M23.32 -4.38 C-112.93 -5.43, -248.97 -3.5, -391.21 -4.38 M23.32 -4.38 C-108.45 -3.69, -240.49 -4.54, -391.21 -4.38 M-391.21 -4.38 C-403.82 -2.77, -405.45 -8.11, -407.21 -20.38 M-391.21 -4.38 C-399.94 -5.91, -407.22 -9.25, -407.21 -20.38 M-407.21 -20.38 C-405.39 -217, -405.54 -412.04, -407.21 -657.14 M-407.21 -20.38 C-407.07 -161.33, -406.93 -302.92, -407.21 -657.14" stroke="#1e1e1e" stroke-width="4" fill="none"></path></g></g><mask></mask><g stroke-linecap="round" transform="translate(391.92126744124084 358.5494197970167) rotate(0 14.611566146722566 12.785145819534591)"><path d="M6.39 0 C10.57 -1.24, 16.44 -2.09, 22.83 0 C30.03 -0.87, 26.58 5.2, 29.22 6.39 C27.15 10.04, 28.23 12.93, 29.22 19.18 C31.36 22.12, 26.76 27.44, 22.83 25.57 C18.69 28.2, 12.91 26.57, 6.39 25.57 C0.03 24.52, 1.28 25.65, 0 19.18 C-1.37 13.87, 1.65 13.83, 0 6.39 C-1.57 2.62, 1.15 1.76, 6.39 0" stroke="none" stroke-width="0" fill="#ffffff"></path><path d="M6.39 0 C13.17 -0.67, 19.78 0.8, 22.83 0 M6.39 0 C9.6 -0.32, 14.65 0.65, 22.83 0 M22.83 0 C25.19 1.48, 30.32 3.86, 29.22 6.39 M22.83 0 C27.25 -0.74, 27.19 0.59, 29.22 6.39 M29.22 6.39 C30.23 12.14, 28.98 16.59, 29.22 19.18 M29.22 6.39 C29.22 9.4, 29.58 13.51, 29.22 19.18 M29.22 19.18 C27.27 24.79, 25.15 27.02, 22.83 25.57 M29.22 19.18 C30.89 25.16, 27.72 27.85, 22.83 25.57 M22.83 25.57 C16.39 27.02, 13.52 26.6, 6.39 25.57 M22.83 25.57 C18.32 25.2, 11.89 26.38, 6.39 25.57 M6.39 25.57 C3.89 27.17, 1.68 22.11, 0 19.18 M6.39 25.57 C2.12 26.04, 0.18 21.93, 0 19.18 M0 19.18 C-0.02 14.97, -1.03 9.92, 0 6.39 M0 19.18 C0.52 15.31, -0.25 11.6, 0 6.39 M0 6.39 C-0.87 0.93, 2.28 -1.07, 6.39 0 M0 6.39 C0.23 1.74, 4.1 1.66, 6.39 0" stroke="#ffffff" stroke-width="4" fill="none"></path></g><g stroke-linecap="round"><g transform="translate(116.80920105807263 71.6118789477814) rotate(0 305.47515930216196 172.12099999229767)"><path d="M0 0 C75.55 1.64, 147.21 2.4, 274.22 0 M0 0 C75.49 1.53, 149.8 1.52, 274.22 0 M274.22 0 C285.98 1.73, 290.36 4.69, 290.22 16 M274.22 0 C282.86 -1.54, 291.52 7.39, 290.22 16 M290.22 16 C291.38 136.11, 291.57 254.48, 290.22 328.24 M290.22 16 C290.32 88.5, 289.29 161.87, 290.22 328.24 M290.22 328.24 C288.28 340.36, 297 345.74, 306.22 344.24 M290.22 328.24 C290.84 341.19, 295.38 342.89, 306.22 344.24 M306.22 344.24 C373.18 343.14, 439.73 342.99, 610.95 344.24 M306.22 344.24 C425.13 346.24, 546.08 346.24, 610.95 344.24" stroke="#1e1e1e" stroke-width="4" fill="none"></path></g></g><mask></mask><g stroke-linecap="round" transform="translate(396.233151247568 710.32764675881) rotate(0 14.611566146722566 12.785145819534591)"><path d="M6.39 0 C12.92 -0.48, 12.45 2.75, 22.83 0 C24.65 2.43, 30.39 -1.35, 29.22 6.39 C30.47 9.76, 28.89 16.01, 29.22 19.18 C26.66 20.13, 30.62 25.11, 22.83 25.57 C14.87 24.77, 11.41 27.45, 6.39 25.57 C0.63 27.56, -0.75 21.5, 0 19.18 C-1.18 16.77, -0.81 14.86, 0 6.39 C0.42 -1.39, 1.08 -2.42, 6.39 0" stroke="none" stroke-width="0" fill="#ffffff"></path><path d="M6.39 0 C9.68 1.48, 14.39 -1.67, 22.83 0 M6.39 0 C9.81 0.48, 15.24 0.59, 22.83 0 M22.83 0 C27.23 -0.64, 27.46 0.8, 29.22 6.39 M22.83 0 C28.39 2.05, 31.08 3.75, 29.22 6.39 M29.22 6.39 C29 12.03, 28.33 16.31, 29.22 19.18 M29.22 6.39 C28.66 9.38, 28.66 11.97, 29.22 19.18 M29.22 19.18 C30.67 24.94, 27.64 27.56, 22.83 25.57 M29.22 19.18 C29.05 22.08, 25.23 23.29, 22.83 25.57 M22.83 25.57 C16.45 26.68, 11.32 26.81, 6.39 25.57 M22.83 25.57 C19.68 26.36, 15.77 25.16, 6.39 25.57 M6.39 25.57 C2.12 25.98, 0.16 22.13, 0 19.18 M6.39 25.57 C3.6 26.01, -1.87 23.44, 0 19.18 M0 19.18 C-0.16 15.64, 0.82 11.8, 0 6.39 M0 19.18 C-0.24 15.54, 0.08 12.33, 0 6.39 M0 6.39 C0.2 1.79, 3.84 1.44, 6.39 0 M0 6.39 C0.2 3.6, 0.32 -0.69, 6.39 0" stroke="#ffffff" stroke-width="4" fill="none"></path></g><g stroke-linecap="round"><g transform="translate(692.8485841166603 724.2724762231528) rotate(0 18.74277434305847 0.22579590713803555)"><path d="M0 0 C12.69 -0.99, 25.45 0.42, 37.49 0.45 M0 0 C14.3 0.46, 28.09 0.04, 37.49 0.45" stroke="#1e1e1e" stroke-width="4" fill="none"></path></g></g><mask></mask><g stroke-linecap="round" transform="translate(260.3160669847259 59.25611356137142) rotate(0 14.611566146722566 13.85394961062758)"><path d="M6.93 0 C9.29 1.63, 16.31 -2.91, 22.3 0 C27.97 -1.79, 30.17 4.44, 29.22 6.93 C27.42 8.28, 31.65 13.91, 29.22 20.78 C32.08 22.48, 27.77 25.6, 22.3 27.71 C16.98 29.41, 13.4 26.39, 6.93 27.71 C-0.83 30.48, 1.96 23.83, 0 20.78 C0.36 13.99, -0.66 10.41, 0 6.93 C-0.91 0.59, 5.62 -1.48, 6.93 0" stroke="none" stroke-width="0" fill="#ffffff"></path><path d="M6.93 0 C12.3 0.59, 20.19 -1.31, 22.3 0 M6.93 0 C12.73 -0.38, 17.74 -0.65, 22.3 0 M22.3 0 C28.04 1.78, 30.84 3.71, 29.22 6.93 M22.3 0 C29.05 -0.65, 31.18 1.97, 29.22 6.93 M29.22 6.93 C27.74 12.39, 28.74 15.22, 29.22 20.78 M29.22 6.93 C29.59 12.54, 29.28 17.8, 29.22 20.78 M29.22 20.78 C29.07 24.22, 25.29 25.73, 22.3 27.71 M29.22 20.78 C31.44 25.83, 28.55 27.9, 22.3 27.71 M22.3 27.71 C15.78 26.31, 12.46 29.17, 6.93 27.71 M22.3 27.71 C16.45 27.76, 10.68 27.1, 6.93 27.71 M6.93 27.71 C3.58 28.09, -1.63 25.4, 0 20.78 M6.93 27.71 C3.11 25.91, 0.08 24.93, 0 20.78 M0 20.78 C-0.71 15.44, -1 10.25, 0 6.93 M0 20.78 C0.06 17.34, 0.58 14.64, 0 6.93 M0 6.93 C0.17 3.59, 0.74 -0.6, 6.93 0 M0 6.93 C-1.14 2.23, 0.5 1.88, 6.93 0" stroke="#ffffff" stroke-width="4" fill="none"></path></g><g stroke-linecap="round"><g transform="translate(709.7788219249654 683.7397877081241) rotate(0 127.07426324005826 -335.89881636758446)"><path d="M0 0 C-84.55 -0.38, -169.9 1.22, -421.09 0 M0 0 C-163.16 -1.07, -325.09 -0.24, -421.09 0 M-421.09 0 C-430.14 1.4, -435.23 -5.9, -437.09 -16 M-421.09 0 C-429.81 -0.33, -435.98 -6.88, -437.09 -16 M-437.09 -16 C-434.76 -202.04, -433.99 -387.28, -437.09 -655.8 M-437.09 -16 C-438.84 -253.89, -438.98 -492.81, -437.09 -655.8 M-437.09 -655.8 C-438.72 -668.45, -429.83 -671.42, -421.09 -671.8 M-437.09 -655.8 C-435.46 -666.27, -430.38 -669.67, -421.09 -671.8 M-421.09 -671.8 C-93.71 -667.63, 233.03 -667.67, 465.99 -671.8 M-421.09 -671.8 C-214.03 -672.78, -6.78 -672.44, 465.99 -671.8 M465.99 -671.8 C475.03 -671.79, 482.69 -668.03, 481.99 -655.8 M465.99 -671.8 C476.74 -672.27, 483.34 -665.17, 481.99 -655.8 M481.99 -655.8 C479.97 -568.41, 480.08 -479.4, 481.99 -431.23 M481.99 -655.8 C482.92 -599.87, 482.26 -544.63, 481.99 -431.23 M481.99 -431.23 C480.42 -421.16, 486.33 -415.29, 497.99 -415.23 M481.99 -431.23 C480.19 -418.68, 486.77 -416.92, 497.99 -415.23 M497.99 -415.23 C573.07 -418.47, 647.43 -417.53, 691.24 -415.23 M497.99 -415.23 C560.94 -414, 623.37 -415.44, 691.24 -415.23" stroke="#1e1e1e" stroke-width="4" fill="none"></path></g></g><mask></mask><g stroke-linecap="round" transform="translate(393.96330454400777 670.4896173382351) rotate(0 14.611566146722566 12.785145819534591)"><path d="M6.39 0 C13.3 -1.19, 19.25 2.04, 22.83 0 C25.78 -0.34, 31.1 -0.44, 29.22 6.39 C31.27 7.19, 30 10.37, 29.22 19.18 C28.17 24.72, 29.3 24.07, 22.83 25.57 C14.41 27.69, 12.76 24.12, 6.39 25.57 C2.62 24.59, 1.76 23.86, 0 19.18 C-0.51 15.5, 2.18 13.06, 0 6.39 C-1.81 1.09, 3.91 -1.33, 6.39 0" stroke="none" stroke-width="0" fill="#ffffff"></path><path d="M6.39 0 C13.01 1.05, 18.61 0.27, 22.83 0 M6.39 0 C11.26 0.84, 15.87 0.69, 22.83 0 M22.83 0 C28.95 -0.56, 30.92 1.84, 29.22 6.39 M22.83 0 C28.2 -1.55, 28.98 -0.17, 29.22 6.39 M29.22 6.39 C30.05 9.58, 30.11 16.17, 29.22 19.18 M29.22 6.39 C29.21 10.81, 28.74 15.34, 29.22 19.18 M29.22 19.18 C31.15 23.81, 28.51 25.74, 22.83 25.57 M29.22 19.18 C30.61 25.57, 28.66 24.1, 22.83 25.57 M22.83 25.57 C20.82 27.1, 15.08 25.71, 6.39 25.57 M22.83 25.57 C18.09 25.62, 11.63 25.46, 6.39 25.57 M6.39 25.57 C2.83 24, 0.07 23.03, 0 19.18 M6.39 25.57 C3.48 26.86, 2.13 22.39, 0 19.18 M0 19.18 C-0.68 15.79, -0.6 12.33, 0 6.39 M0 19.18 C-0.05 15.97, -0.61 11.75, 0 6.39 M0 6.39 C-0.99 2.06, 0.56 1.63, 6.39 0 M0 6.39 C-0.56 0.44, 4.09 -1.56, 6.39 0" stroke="#ffffff" stroke-width="4" fill="none"></path></g><g stroke-linecap="round"><g transform="translate(707.2013014493124 452.2730461932708) rotate(0 -148.97315015636912 156.0648932403609)"><path d="M0 0 C-56.41 1.28, -115.95 -0.17, -281.95 0 M0 0 C-65.14 2.46, -130.8 1.7, -281.95 0 M-281.95 0 C-290.91 -0.29, -296.98 3.99, -297.95 16 M-281.95 0 C-292.85 -2.3, -296.88 4.69, -297.95 16 M-297.95 16 C-295.39 76.94, -295.36 136.14, -297.95 312.13 M-297.95 16 C-298.71 133.5, -297.4 252.6, -297.95 312.13" stroke="#1e1e1e" stroke-width="4" fill="none"></path></g></g><mask></mask><g stroke-linecap="round" transform="translate(1406.0202778507219 234.88533222442214) rotate(0 53.82284044768164 73.39480590820312)"><path d="M26.91 0 C39.06 -0.91, 55.71 -3.14, 80.73 0 C95.36 3.53, 107.18 11.82, 107.65 26.91 C106.99 48.55, 110.25 66.13, 107.65 119.88 C109.63 137.07, 96.74 143.65, 80.73 146.79 C60.93 145.38, 41.9 146.79, 26.91 146.79 C5.45 145.74, -2.42 136.91, 0 119.88 C-3.35 95.38, 0.24 71.64, 0 26.91 C-0.6 12.51, 7.11 2.31, 26.91 0" stroke="none" stroke-width="0" fill="#1e1e1e"></path><path d="M26.91 0 C45.36 -1.8, 63.75 1.09, 80.73 0 M26.91 0 C48.79 -0.66, 69.66 -0.52, 80.73 0 M80.73 0 C99.64 -1.34, 107.44 6.97, 107.65 26.91 M80.73 0 C99.74 -0.64, 105.4 10.52, 107.65 26.91 M107.65 26.91 C109.82 46.34, 110.3 64.53, 107.65 119.88 M107.65 26.91 C107.85 49.51, 107.6 71.82, 107.65 119.88 M107.65 119.88 C108.85 139.67, 100.04 145.51, 80.73 146.79 M107.65 119.88 C105.4 139.67, 100.7 148.63, 80.73 146.79 M80.73 146.79 C60.47 146.94, 38.08 148.06, 26.91 146.79 M80.73 146.79 C63.91 146.01, 46.42 146.59, 26.91 146.79 M26.91 146.79 C10.14 147.91, 1.85 136.91, 0 119.88 M26.91 146.79 C8.34 145.25, -1 136.43, 0 119.88 M0 119.88 C0.16 93, 1.94 62.86, 0 26.91 M0 119.88 C0.23 86, -0.05 53, 0 26.91 M0 26.91 C-0.48 7.5, 10.67 -1.36, 26.91 0 M0 26.91 C1.55 9.72, 6.75 0.67, 26.91 0" stroke="#1e1e1e" stroke-width="2" fill="none"></path></g><g stroke-linecap="round" transform="translate(1426.5755230085583 234.88533222442214) rotate(0 69.32122267172699 72.62221926195413)"><path d="M98.27 5.51 C107.53 8.44, 116.37 17.22, 122.79 25.54 C129.21 33.86, 134.44 45.17, 136.79 55.42 C139.14 65.67, 138.84 76.97, 136.88 87.04 C134.92 97.12, 131.19 107.32, 125.03 115.86 C118.87 124.4, 108.96 133.26, 99.92 138.28 C90.88 143.31, 80.81 145.9, 70.8 146.02 C60.8 146.14, 49.1 143.52, 39.89 139 C30.68 134.49, 21.79 126.91, 15.56 118.91 C9.32 110.92, 4.9 101.08, 2.47 91.03 C0.04 80.99, -0.93 69.15, 0.98 58.66 C2.89 48.18, 7.93 36.46, 13.93 28.13 C19.92 19.81, 27.88 13.47, 36.93 8.71 C45.99 3.95, 57.67 -0.2, 68.26 -0.42 C78.85 -0.64, 94.76 5.6, 100.46 7.4 C106.17 9.19, 103.2 9.27, 102.49 10.35 M47.82 3.45 C56.41 -0.82, 66.49 -1.16, 76.34 0.03 C86.2 1.21, 98.39 4.68, 106.96 10.59 C115.53 16.5, 122.7 26.33, 127.77 35.47 C132.85 44.62, 136.36 55.51, 137.43 65.47 C138.51 75.43, 137.43 85.56, 134.21 95.22 C130.99 104.88, 125.31 116.03, 118.12 123.44 C110.93 130.85, 100.6 136.01, 91.05 139.68 C81.5 143.35, 70.76 146.34, 60.83 145.46 C50.89 144.58, 39.98 139.9, 31.44 134.39 C22.89 128.88, 14.68 121.5, 9.55 112.39 C4.41 103.28, 1.58 90.6, 0.61 79.73 C-0.36 68.87, 0.41 57.1, 3.73 47.22 C7.05 37.34, 13.15 27.72, 20.52 20.45 C27.89 13.19, 43.69 5.88, 47.94 3.61 C52.19 1.35, 45.82 5.7, 46 6.87" stroke="none" stroke-width="0" fill="#1e1e1e"></path><path d="M89.32 3.8 C98.56 5.54, 107.99 12.46, 115.31 19.4 C122.64 26.33, 129.5 35.87, 133.26 45.42 C137.02 54.97, 138.58 66.22, 137.86 76.7 C137.14 87.19, 133.74 99.27, 128.94 108.31 C124.14 117.35, 116.97 125.11, 109.07 130.94 C101.16 136.76, 91.22 141.24, 81.5 143.27 C71.78 145.3, 60.37 145.82, 50.75 143.1 C41.13 140.38, 31.22 134.11, 23.8 126.97 C16.38 119.82, 10.27 110.12, 6.23 100.23 C2.18 90.34, -0.72 77.94, -0.47 67.63 C-0.23 57.31, 2.72 47.29, 7.71 38.36 C12.7 29.43, 21.12 20.16, 29.48 14.04 C37.85 7.91, 47.51 3.23, 57.9 1.61 C68.3 -0.01, 86.16 3.76, 91.85 4.3 C97.55 4.84, 92.48 3.66, 92.1 4.84 M96.29 6.03 C105.28 8.91, 114.66 15.76, 121.45 23.63 C128.24 31.51, 134.54 43.02, 137.02 53.3 C139.51 63.58, 138.18 75.2, 136.36 85.3 C134.53 95.4, 131.74 105.42, 126.09 113.89 C120.45 122.36, 111.23 130.77, 102.48 136.12 C93.73 141.48, 83.39 145.55, 73.59 146 C63.8 146.45, 53.18 143.23, 43.73 138.84 C34.28 134.44, 23.86 127.54, 16.9 119.62 C9.93 111.71, 4.54 101.41, 1.92 91.33 C-0.7 81.25, -0.71 69.38, 1.18 59.14 C3.06 48.91, 7.17 38.13, 13.22 29.92 C19.28 21.71, 28.7 14.71, 37.5 9.9 C46.31 5.08, 56.45 1.82, 66.05 1.05 C75.66 0.28, 90.3 4.28, 95.12 5.28 C99.95 6.27, 95.47 5.62, 95.02 7.01" stroke="#1e1e1e" stroke-width="2" fill="none"></path></g><g stroke-linecap="round" transform="translate(265.6070327718105 359.2663497479693) rotate(0 9.63913142379181 9.639131423791838)"><path d="M8.33 0.11 C10.3 -0.16, 13.09 0.91, 14.91 2.06 C16.74 3.2, 18.61 5.14, 19.26 6.99 C19.9 8.84, 19.7 11.29, 18.78 13.13 C17.86 14.98, 15.65 17.13, 13.75 18.04 C11.84 18.95, 9.24 19.08, 7.32 18.61 C5.41 18.14, 3.55 16.74, 2.27 15.21 C0.99 13.68, -0.36 11.41, -0.35 9.43 C-0.33 7.44, 0.79 4.95, 2.34 3.31 C3.9 1.66, 7.84 0.11, 8.98 -0.45 C10.13 -1.01, 9.2 -0.33, 9.21 -0.04 M8.23 -0.65 C10.3 -1.03, 13.99 0.43, 15.87 1.62 C17.76 2.82, 19.08 4.56, 19.53 6.5 C19.98 8.44, 19.57 11.22, 18.57 13.24 C17.57 15.26, 15.35 17.72, 13.53 18.62 C11.71 19.53, 9.53 19.24, 7.64 18.65 C5.75 18.05, 3.52 16.79, 2.18 15.04 C0.84 13.3, -0.57 10.15, -0.37 8.18 C-0.17 6.22, 1.91 4.6, 3.37 3.26 C4.84 1.92, 7.57 0.59, 8.43 0.14 C9.3 -0.3, 8.49 0.58, 8.57 0.6" stroke="none" stroke-width="0" fill="#1e1e1e"></path><path d="M11.43 0.62 C13.31 0.86, 15.87 2.35, 17.12 3.89 C18.37 5.43, 19.07 7.79, 18.94 9.85 C18.81 11.91, 17.69 14.79, 16.35 16.27 C15.01 17.74, 12.82 18.5, 10.91 18.68 C9.01 18.87, 6.61 18.31, 4.93 17.37 C3.25 16.43, 1.5 14.91, 0.86 13.05 C0.21 11.19, 0.27 8.22, 1.05 6.23 C1.83 4.24, 3.73 2.17, 5.55 1.13 C7.36 0.08, 10.82 -0.06, 11.96 -0.04 C13.09 -0.03, 12.34 0.96, 12.36 1.24 M10.35 -0.48 C12.12 -0.58, 13.68 1.45, 15.26 2.99 C16.84 4.53, 19.28 6.91, 19.83 8.77 C20.37 10.62, 19.7 12.44, 18.51 14.13 C17.33 15.83, 14.79 18.25, 12.74 18.92 C10.69 19.58, 8.06 18.88, 6.21 18.13 C4.37 17.39, 2.78 16.15, 1.67 14.42 C0.56 12.7, -0.79 9.91, -0.43 7.77 C-0.06 5.62, 2.15 2.86, 3.86 1.54 C5.58 0.22, 8.8 0, 9.87 -0.15 C10.94 -0.31, 10.17 0.49, 10.28 0.62" stroke="#1e1e1e" stroke-width="4" fill="none"></path></g><g stroke-linecap="round" transform="translate(399.813165892549 752.9870146538026) rotate(0 9.63913142379181 9.639131423791838)"><path d="M9.74 0.43 C11.8 0.34, 14.71 1.2, 16.33 2.42 C17.96 3.64, 19.25 5.76, 19.48 7.75 C19.72 9.74, 18.87 12.6, 17.74 14.37 C16.62 16.14, 14.61 17.67, 12.75 18.37 C10.89 19.06, 8.56 19.12, 6.58 18.51 C4.59 17.91, 1.96 16.46, 0.83 14.73 C-0.29 12.99, -0.64 10.3, -0.16 8.12 C0.33 5.95, 2.02 3.05, 3.75 1.66 C5.47 0.26, 9.09 -0.05, 10.2 -0.24 C11.31 -0.43, 10.46 0.32, 10.4 0.51 M11.62 -0.02 C13.77 0.13, 16.03 1.05, 17.33 2.51 C18.64 3.98, 19.49 6.56, 19.45 8.77 C19.4 10.98, 18.28 14.11, 17.07 15.77 C15.86 17.43, 14.1 18.36, 12.19 18.73 C10.28 19.11, 7.59 19.04, 5.61 18.04 C3.63 17.03, 1.1 14.49, 0.33 12.68 C-0.43 10.87, 0.39 9, 1.02 7.16 C1.65 5.31, 2.51 2.73, 4.13 1.62 C5.74 0.5, 9.55 0.79, 10.68 0.45 C11.82 0.1, 10.98 -0.48, 10.95 -0.46" stroke="none" stroke-width="0" fill="#1e1e1e"></path><path d="M11.79 0.5 C13.69 0.75, 15.87 2.17, 17.03 3.83 C18.2 5.48, 18.85 8.44, 18.76 10.43 C18.68 12.42, 17.79 14.38, 16.51 15.76 C15.24 17.15, 13.07 18.35, 11.1 18.73 C9.13 19.11, 6.43 19.09, 4.71 18.06 C2.99 17.03, 1.35 14.59, 0.78 12.54 C0.21 10.5, 0.58 7.77, 1.28 5.79 C1.99 3.8, 3.22 1.43, 5.02 0.62 C6.81 -0.19, 10.67 0.83, 12.04 0.93 C13.4 1.02, 13.17 1.09, 13.21 1.21 M11.12 0.86 C13.08 1.37, 16.56 3, 18.02 4.47 C19.49 5.94, 20.12 7.7, 19.89 9.69 C19.67 11.67, 18.17 14.89, 16.66 16.4 C15.14 17.9, 12.8 18.48, 10.83 18.72 C8.86 18.96, 6.67 18.89, 4.83 17.84 C2.99 16.79, 0.43 14.52, -0.2 12.42 C-0.83 10.32, 0.12 7.17, 1.04 5.25 C1.97 3.32, 3.45 1.64, 5.33 0.88 C7.2 0.12, 11.09 0.81, 12.29 0.68 C13.48 0.55, 12.64 0.1, 12.5 0.1" stroke="#1e1e1e" stroke-width="4" fill="none"></path></g><g stroke-linecap="round" transform="translate(216.77743857106998 60.71553800892866) rotate(0 9.63913142379181 9.63913142379181)"><path d="M10.24 0.05 C12.27 -0.17, 14.88 0.7, 16.34 2.02 C17.8 3.34, 18.77 5.91, 19.02 7.96 C19.27 10, 18.83 12.49, 17.85 14.27 C16.86 16.06, 15.13 17.86, 13.12 18.66 C11.1 19.45, 7.8 19.72, 5.75 19.04 C3.7 18.36, 1.73 16.55, 0.83 14.59 C-0.07 12.62, -0.14 9.37, 0.35 7.24 C0.84 5.12, 2.12 3.01, 3.78 1.85 C5.43 0.7, 9.21 0.59, 10.28 0.31 C11.36 0.03, 10.21 0.13, 10.22 0.18 M8.04 -0.35 C9.83 -0.98, 12.46 -0.48, 14.17 0.6 C15.87 1.68, 17.42 4.19, 18.28 6.11 C19.14 8.03, 19.82 10.21, 19.33 12.12 C18.83 14.02, 17.2 16.48, 15.33 17.55 C13.46 18.62, 10.11 18.71, 8.09 18.56 C6.07 18.4, 4.59 18.02, 3.19 16.64 C1.79 15.26, -0.07 12.34, -0.31 10.28 C-0.56 8.21, 0.41 6.02, 1.72 4.23 C3.03 2.44, 6.61 0.24, 7.53 -0.48 C8.45 -1.2, 7.28 -0.28, 7.27 -0.06" stroke="none" stroke-width="0" fill="#1e1e1e"></path><path d="M11.33 0.16 C13.21 0.46, 15.45 2.4, 16.75 3.96 C18.05 5.52, 19.07 7.57, 19.13 9.51 C19.19 11.46, 18.42 13.95, 17.12 15.63 C15.82 17.3, 13.36 19.17, 11.32 19.55 C9.28 19.94, 6.61 19.1, 4.88 17.93 C3.16 16.77, 1.7 14.61, 0.96 12.55 C0.22 10.5, -0.2 7.42, 0.42 5.6 C1.03 3.77, 2.69 2.42, 4.64 1.6 C6.6 0.77, 10.86 0.78, 12.16 0.66 C13.46 0.55, 12.42 0.75, 12.44 0.9 M8.76 0.72 C10.91 0.1, 13.54 -0.12, 15.21 0.86 C16.87 1.84, 18.16 4.67, 18.74 6.62 C19.32 8.58, 19.36 10.64, 18.71 12.57 C18.05 14.5, 16.73 17.11, 14.82 18.2 C12.9 19.29, 9.28 19.62, 7.22 19.11 C5.15 18.6, 3.63 16.77, 2.43 15.14 C1.23 13.52, -0.03 11.25, 0.03 9.35 C0.09 7.45, 1.32 5.35, 2.78 3.76 C4.24 2.17, 7.94 0.44, 8.79 -0.22 C9.65 -0.88, 8.07 -0.33, 7.93 -0.19" stroke="#1e1e1e" stroke-width="4" fill="none"></path></g><g stroke-linecap="round" transform="translate(989.9695415635524 347.8722932270486) rotate(0 142.80381508565222 224.78376663352805)"><path d="M32 0 C114.22 -1.73, 201.18 1.08, 253.61 0 C273.44 1.99, 284.85 8.73, 285.61 32 C287.84 114.33, 288.19 197.12, 285.61 417.57 C286.03 435.38, 273.89 447.15, 253.61 449.57 C191.44 451.17, 130.94 454.28, 32 449.57 C9.34 448.96, 3.54 437.04, 0 417.57 C1.18 276.39, -0.16 134.66, 0 32 C-1.72 12.29, 8.29 0.69, 32 0" stroke="none" stroke-width="0" fill="#1e1e1e"></path><path d="M32 0 C118.83 -0.79, 205 -1.81, 253.61 0 M32 0 C75.48 1.12, 119.81 1.16, 253.61 0 M253.61 0 C276.39 1.5, 286.15 12.65, 285.61 32 M253.61 0 C274.77 -1.35, 283.74 8.39, 285.61 32 M285.61 32 C286.13 185.52, 287.13 338.43, 285.61 417.57 M285.61 32 C283.91 123.42, 283.88 213.5, 285.61 417.57 M285.61 417.57 C285.6 439.31, 275.1 448.26, 253.61 449.57 M285.61 417.57 C287.07 439.34, 273.07 449.57, 253.61 449.57 M253.61 449.57 C179.04 450.65, 106.15 451.23, 32 449.57 M253.61 449.57 C196.83 447.77, 140.87 447.82, 32 449.57 M32 449.57 C10.87 449.22, 1.71 440.34, 0 417.57 M32 449.57 C10.86 451.04, -1.81 438.21, 0 417.57 M0 417.57 C1.04 320.75, -0.79 225.52, 0 32 M0 417.57 C-2.11 328.22, -1.83 238.67, 0 32 M0 32 C1.19 9.94, 10.48 1.04, 32 0 M0 32 C-1.64 8.55, 12.92 -0.3, 32 0" stroke="#1e1e1e" stroke-width="4" fill="none"></path></g><g stroke-linecap="round" transform="translate(908.331826399929 532.5966413980532) rotate(0 61.276986551321315 42.10558262370864)"><path d="M77.5 10.75 C85.65 19.19, 97.38 23.8, 107.05 32.25 M77.5 10.75 C88.88 19.19, 99.29 27.33, 107.05 32.25 M107.05 32.25 C122.4 41.82, 120.93 41.02, 107.05 53.75 M107.05 32.25 C124.77 43.43, 124.19 43.19, 107.05 53.75 M107.05 53.75 C95.31 59.1, 87.56 69.91, 77.5 73.46 M107.05 53.75 C95.98 61.24, 84.84 67.88, 77.5 73.46 M77.5 73.46 C63.28 84.59, 60.37 84.22, 46.5 73.46 M77.5 73.46 C62.8 82.41, 62.08 83.74, 46.5 73.46 M46.5 73.46 C34.37 66.13, 22.82 58.75, 15.5 53.75 M46.5 73.46 C39.15 68.4, 32.48 64.56, 15.5 53.75 M15.5 53.75 C0.17 44.28, -1.57 42.4, 15.5 32.25 M15.5 53.75 C-1.14 42.92, -1.81 44.88, 15.5 32.25 M15.5 32.25 C22.85 27.41, 33.41 18.19, 46.5 10.75 M15.5 32.25 C26.41 24.72, 35.93 18.53, 46.5 10.75 M46.5 10.75 C60.57 -1.84, 63.96 -0.26, 77.5 10.75 M46.5 10.75 C63.82 -1.86, 62.55 -1.34, 77.5 10.75" stroke="#ffffff" stroke-width="4" fill="none"></path></g><g stroke-linecap="round"><g transform="translate(883.8605396019866 420.07604363891056) rotate(0 50.04190272255562 5.684341886080802e-14)"><path d="M0 0 C28.42 -2.42, 59.31 -2.4, 100.08 0 M0 0 C37.55 0.24, 74.48 -1.34, 100.08 0" stroke="#1e1e1e" stroke-width="4" fill="none"></path></g></g><mask></mask><g stroke-linecap="round"><g transform="translate(882.2114134078738 726.8792596228816) rotate(0 55.04207034976429 0)"><path d="M0 0 C39.47 -0.86, 77.68 2.53, 110.08 0 M0 0 C41.19 -1.68, 81.71 -2.08, 110.08 0" stroke="#1e1e1e" stroke-width="4" fill="none"></path></g></g><mask></mask><g stroke-linecap="round"><g transform="translate(1276.915632294197 724.0636762936767) rotate(0 44.52804339683428 0)"><path d="M0 0 C19.45 2.31, 37.51 1.41, 89.06 0 M0 0 C34.74 -0.47, 72.07 0.71, 89.06 0" stroke="#1e1e1e" stroke-width="4" fill="none"></path></g></g><mask></mask><g stroke-linecap="round"><g transform="translate(1280.5771717348568 410.320136244562) rotate(0 74.54643394610099 -34.37867985265848)"><path d="M0 0 C12.57 0.15, 24.12 -0.54, 54.5 0 M0 0 C14.1 0.73, 26.99 0.62, 54.5 0 M54.5 0 C66.37 1.85, 71.87 -6.62, 70.5 -16 M54.5 0 C62.92 1.85, 72.52 -3.49, 70.5 -16 M70.5 -16 C71.15 -29.96, 69.43 -42.96, 70.5 -52.76 M70.5 -16 C71.15 -28.51, 70.83 -39.66, 70.5 -52.76 M70.5 -52.76 C71.67 -62.3, 77.68 -69.67, 86.5 -68.76 M70.5 -52.76 C69.87 -64.96, 74.84 -70.14, 86.5 -68.76 M86.5 -68.76 C105.41 -67.11, 126.45 -68.65, 149.09 -68.76 M86.5 -68.76 C108.79 -68.6, 131.29 -67.75, 149.09 -68.76" stroke="#1e1e1e" stroke-width="4" fill="none"></path></g></g><mask></mask><g stroke-linecap="round"><g transform="translate(1576.15412068725 315.11774019911473) rotate(0 40.23803587170474 0)"><path d="M0 0 C31.96 -0.37, 58.78 -1.84, 80.48 0 M0 0 C16.88 -0.07, 32.93 0.78, 80.48 0" stroke="#1e1e1e" stroke-width="4" fill="none"></path></g></g><mask></mask><g stroke-linecap="round" transform="translate(11.195826403202545 902.0143398780222) rotate(0 50.52405085463363 33.48338098181054)"><path d="M63.75 8.5 C66.67 12.38, 74.82 14.34, 88.3 25.5 C97.47 32.28, 102.67 31.63, 88.3 42.5 C80.67 45.53, 72.03 49.68, 63.75 58.47 C51.49 65.04, 54.59 65.87, 38.25 58.47 C31.13 55.88, 27.52 50.81, 12.75 42.5 C1.29 36.68, 0.39 36.8, 12.75 25.5 C17.85 21.47, 25.69 19.01, 38.25 8.5 C53.7 -3.41, 50.15 1.93, 63.75 8.5" stroke="none" stroke-width="0" fill="#1e1e1e"></path><path d="M63.75 8.5 C72.08 14.88, 83.34 21.64, 88.3 25.5 M63.75 8.5 C68.8 12.44, 75.72 15.64, 88.3 25.5 M88.3 25.5 C101.12 33.59, 102.22 35.12, 88.3 42.5 M88.3 25.5 C103.17 32.95, 100.42 32.46, 88.3 42.5 M88.3 42.5 C80.83 46.82, 75.26 52.43, 63.75 58.47 M88.3 42.5 C78.39 48.3, 69.55 54.51, 63.75 58.47 M63.75 58.47 C49.43 68.6, 50.52 65.5, 38.25 58.47 M63.75 58.47 C52.96 65.41, 52.55 67.72, 38.25 58.47 M38.25 58.47 C33.54 56.28, 27.11 51.66, 12.75 42.5 M38.25 58.47 C30.37 52.48, 21.2 46.18, 12.75 42.5 M12.75 42.5 C0.48 32.83, -0.59 34.71, 12.75 25.5 M12.75 42.5 C1.41 33.04, 1.27 33.52, 12.75 25.5 M12.75 25.5 C20.26 20.24, 25.73 16.39, 38.25 8.5 M12.75 25.5 C21.34 19.15, 30.27 13.41, 38.25 8.5 M38.25 8.5 C52.84 -0.82, 49.99 -0.58, 63.75 8.5 M38.25 8.5 C52.14 -0.85, 50.61 2.26, 63.75 8.5" stroke="#1e1e1e" stroke-width="2" fill="none"></path></g><g stroke-linecap="round" transform="translate(10 891.2518705679324) rotate(0 30.394130030784652 42.25283486502519)"><path d="M15.2 0 C21.9 -2.69, 27.67 -1.64, 45.59 0 C57.34 -2.37, 61.48 2.5, 60.79 15.2 C60.51 32.2, 61.39 53.98, 60.79 69.31 C64.38 78.34, 53.56 87.94, 45.59 84.51 C37.67 84.59, 27.49 87.36, 15.2 84.51 C5.45 87.3, -2.91 82.8, 0 69.31 C2.11 53.32, 2.76 31.85, 0 15.2 C-0.85 7, 2.86 3.04, 15.2 0" stroke="none" stroke-width="0" fill="#ffffff"></path><path d="M15.2 0 C27.28 0.16, 37.24 1.28, 45.59 0 M15.2 0 C25.24 -0.78, 34.63 -0.2, 45.59 0 M45.59 0 C56.89 1.12, 62.64 4.16, 60.79 15.2 M45.59 0 C55.09 -1.54, 59.79 3.68, 60.79 15.2 M60.79 15.2 C60.15 33.55, 61.94 48.65, 60.79 69.31 M60.79 15.2 C59.87 34.86, 59.58 55.41, 60.79 69.31 M60.79 69.31 C60.31 77.97, 57.42 83.15, 45.59 84.51 M60.79 69.31 C62.34 80.19, 53.5 85.18, 45.59 84.51 M45.59 84.51 C37.26 84.5, 31.42 83.26, 15.2 84.51 M45.59 84.51 C40.06 83.66, 33.19 83.88, 15.2 84.51 M15.2 84.51 C4.48 85.21, 1.23 78.6, 0 69.31 M15.2 84.51 C6.34 84.02, -1.24 77.43, 0 69.31 M0 69.31 C-0.02 48.36, 0.68 28.73, 0 15.2 M0 69.31 C-0.09 57.89, 1.08 47.02, 0 15.2 M0 15.2 C-1.01 4.49, 6.06 -0.74, 15.2 0 M0 15.2 C-0.39 7.33, 3.88 1.47, 15.2 0" stroke="transparent" stroke-width="2" fill="none"></path></g><g stroke-linecap="round" transform="translate(112.32346104554131 927.9810399429832) rotate(0 9.19152854142527 8.534982949802327)"><path d="M10.02 0.47 C11.95 0.61, 14.88 1.33, 16.29 2.6 C17.69 3.87, 18.38 6.21, 18.45 8.09 C18.51 9.96, 17.99 12.4, 16.69 13.84 C15.38 15.28, 12.65 16.38, 10.63 16.73 C8.6 17.09, 6.25 16.71, 4.55 15.95 C2.85 15.2, 1.15 13.92, 0.44 12.2 C-0.28 10.49, -0.38 7.43, 0.24 5.66 C0.86 3.88, 2.44 2.49, 4.16 1.55 C5.89 0.62, 9.36 0.29, 10.59 0.04 C11.82 -0.2, 11.48 -0.03, 11.54 0.09 M6.48 -0.51 C8.23 -0.92, 11.17 0.27, 12.95 1.24 C14.72 2.21, 16.38 3.57, 17.13 5.29 C17.88 7, 17.93 9.9, 17.47 11.54 C17 13.19, 15.91 14.36, 14.34 15.16 C12.77 15.95, 10.01 16.51, 8.06 16.31 C6.1 16.12, 3.83 15.25, 2.62 14 C1.4 12.75, 0.97 10.45, 0.76 8.81 C0.56 7.18, 0.29 5.62, 1.36 4.16 C2.43 2.71, 6.21 0.65, 7.2 0.08 C8.2 -0.48, 7.33 0.56, 7.34 0.77" stroke="none" stroke-width="0" fill="#1e1e1e"></path><path d="M10.65 0.28 C12.44 0.52, 14.48 1.57, 15.75 2.97 C17.02 4.37, 18.14 6.8, 18.28 8.7 C18.42 10.6, 17.87 13.04, 16.6 14.38 C15.34 15.73, 12.73 16.55, 10.7 16.78 C8.66 17.01, 6.11 16.63, 4.38 15.77 C2.65 14.91, 0.99 13.28, 0.3 11.61 C-0.39 9.95, -0.44 7.45, 0.24 5.79 C0.92 4.12, 2.56 2.57, 4.39 1.64 C6.22 0.7, 10.07 0.47, 11.24 0.19 C12.41 -0.09, 11.5 -0.13, 11.39 -0.04 M8.93 -0.55 C11.01 -0.86, 14.05 0.15, 15.68 1.44 C17.31 2.74, 18.61 5.31, 18.74 7.23 C18.87 9.15, 17.58 11.38, 16.46 12.96 C15.35 14.54, 13.68 16.17, 12.03 16.73 C10.38 17.28, 8.37 16.88, 6.57 16.31 C4.76 15.73, 2.36 14.9, 1.2 13.25 C0.04 11.61, -0.87 8.32, -0.41 6.43 C0.05 4.55, 2.27 3.12, 3.96 1.95 C5.65 0.77, 8.82 -0.24, 9.71 -0.61 C10.6 -0.98, 9.43 -0.55, 9.29 -0.27" stroke="#1e1e1e" stroke-width="2" fill="none"></path></g><g stroke-linecap="round" transform="translate(67.72191776526938 1007.2774280933713) rotate(0 21.190587341053117 28.89626470920325)"><path d="M10.6 0 C16.64 -2.32, 24.03 0.67, 31.79 0 C36.45 -0.39, 39.03 4.02, 42.38 10.6 C40.87 23.05, 43.73 27.91, 42.38 47.2 C43.53 56.04, 38.76 59.09, 31.79 57.79 C20.94 61.45, 16.44 57.89, 10.6 57.79 C3.29 59.85, 1.03 56.96, 0 47.2 C-2.05 42.73, 0.31 33, 0 10.6 C-0.12 5.09, 1.22 -3.49, 10.6 0" stroke="none" stroke-width="0" fill="#1e1e1e"></path><path d="M10.6 0 C18.31 0.87, 24.45 0.24, 31.79 0 M10.6 0 C17.44 -0.57, 22.17 -0.79, 31.79 0 M31.79 0 C37.98 -1.21, 42.53 2.46, 42.38 10.6 M31.79 0 C39.08 -0.4, 44.35 5.19, 42.38 10.6 M42.38 10.6 C42.01 20.9, 42.55 31.61, 42.38 47.2 M42.38 10.6 C43.14 23.88, 42.97 38.86, 42.38 47.2 M42.38 47.2 C40.45 54.85, 37.85 58.32, 31.79 57.79 M42.38 47.2 C43.75 53.42, 38.63 58.99, 31.79 57.79 M31.79 57.79 C26.68 59.59, 20.47 58.48, 10.6 57.79 M31.79 57.79 C27.28 57.45, 22.1 57.66, 10.6 57.79 M10.6 57.79 C2.46 56.05, 1.54 55.35, 0 47.2 M10.6 57.79 C2.53 58.11, -0.63 55.39, 0 47.2 M0 47.2 C-0.99 35.28, -0.6 26.22, 0 10.6 M0 47.2 C0.68 37.35, 0.02 29.23, 0 10.6 M0 10.6 C-1.03 4.81, 2.81 -1.87, 10.6 0 M0 10.6 C-0.32 2.69, 1.77 -2.29, 10.6 0" stroke="#1e1e1e" stroke-width="2" fill="none"></path></g><g stroke-linecap="round" transform="translate(75.81472212510789 1007.2774280933713) rotate(0 27.292454493213143 28.592089666234557)"><path d="M21.87 0.8 C27.03 -0.82, 33.91 0.17, 38.91 2.93 C43.9 5.7, 49.51 11.53, 51.83 17.39 C54.15 23.25, 54.56 32.3, 52.85 38.1 C51.13 43.9, 46.45 48.98, 41.55 52.2 C36.65 55.42, 29.24 58.18, 23.45 57.44 C17.66 56.69, 10.55 52.43, 6.81 47.75 C3.07 43.06, 1.1 35.48, 1.01 29.33 C0.92 23.18, 1.87 15.74, 6.28 10.83 C10.68 5.93, 22.7 1.52, 27.46 -0.11 C32.22 -1.75, 34.84 0.63, 34.82 1.05 M32.31 1.86 C38 2.59, 45.56 5.88, 49.23 10.34 C52.91 14.8, 54.68 22.49, 54.39 28.64 C54.1 34.79, 51.2 42.61, 47.49 47.25 C43.79 51.89, 38.15 55.38, 32.17 56.51 C26.18 57.64, 16.68 57.33, 11.57 54.03 C6.45 50.73, 2.98 42.67, 1.49 36.7 C0 30.73, 0.41 23.71, 2.63 18.21 C4.85 12.71, 9.51 6.57, 14.82 3.68 C20.13 0.79, 31.23 1.48, 34.5 0.88 C37.77 0.28, 34.48 -0.41, 34.43 0.07" stroke="none" stroke-width="0" fill="#1e1e1e"></path><path d="M28.34 0.93 C33.86 0.53, 40.55 2.95, 44.75 6.75 C48.96 10.55, 52.69 17.59, 53.58 23.7 C54.47 29.81, 53.07 38.07, 50.08 43.41 C47.08 48.75, 41.09 53.61, 35.63 55.73 C30.17 57.85, 22.57 58.34, 17.33 56.14 C12.08 53.93, 6.83 48.16, 4.14 42.53 C1.44 36.89, 0.2 28.44, 1.14 22.33 C2.09 16.22, 5.11 9.7, 9.83 5.87 C14.54 2.03, 25.75 0.18, 29.43 -0.69 C33.1 -1.57, 32.03 -0.14, 31.87 0.61 M16.76 2.07 C21.59 -0.23, 30.27 0.23, 36.14 2.22 C42 4.21, 48.98 8.6, 51.95 14 C54.93 19.4, 55.38 28.74, 53.98 34.62 C52.58 40.5, 47.8 45.57, 43.56 49.3 C39.31 53.03, 33.96 57.02, 28.49 56.99 C23.02 56.96, 15.36 53.19, 10.73 49.09 C6.1 45, 1.96 38.15, 0.73 32.4 C-0.5 26.65, 0.29 19.81, 3.35 14.58 C6.42 9.35, 16.49 3.12, 19.13 1 C21.78 -1.12, 19.36 1.52, 19.23 1.85" stroke="#1e1e1e" stroke-width="2" fill="none"></path></g></svg>